<svg viewBox="0 0 1785 1374" xmlns="http://www.w3.org/2000/svg">
    <path fill="white" d="M1 1279C1 884 1 489 1 94C8 63 19 45 35 31C50 16 69 7 90 3C94 2 98 2 103 1H1684C1688 2 1692 3 1696 3C1716 6 1734 14 1749 27C1766 43 1779 62 1783 85C1784 90 1785 94 1786 98V1277C1784 1283 1784 1288 1783 1293C1776 1316 1764 1335 1746 1350C1727 1365 1705 1373 1682 1374C1669 1374 1656 1372 1644 1368C1616 1359 1596 1341 1582 1315C1575 1303 1568 1290 1558 1279C1544 1262 1526 1249 1505 1239C1488 1231 1470 1226 1451 1224C1433 1223 1416 1224 1399 1228C1370 1236 1345 1250 1324 1270C1311 1283 1300 1299 1292 1316C1285 1329 1276 1341 1264 1350C1245 1366 1222 1374 1197 1374H108C100 1374 91 1372 82 1370C61 1365 43 1355 29 1339C19 1328 11 1316 7 1302C5 1294 3 1287 1 1279Z"/>
</svg>
