<?xml version="1.0" encoding="UTF-8"?>
<svg id="Warstwa_2" data-name="Warstwa 2" xmlns="http://www.w3.org/2000/svg" viewBox="0 0 238.78 296.27">
  <defs>
    <style>
      .cls-1 {
        fill: #fff;
      }

      .cls-2 {
        fill: #a47f4c;
      }
    </style>
  </defs>
  <g id="Warstwa_1-2" data-name="Warstwa 1">
    <g>
      <path class="cls-2" d="M119.39,0c-32.87,0-59.61,26.74-59.61,59.61v42.67c0,32.87,26.74,59.61,59.61,59.61s59.61-26.74,59.61-59.61v-42.67C179,26.74,152.26,0,119.39,0ZM176,59.61v42.67c0,1-.03,1.99-.08,2.98-5.81-1.69-11.84-2.55-17.95-2.55-13.21,0-25.9,3.99-36.69,11.53-.13.09-.26.19-.39.28v-16.84c.33.01.65.02.98.02,6.99,0,13.84-2.87,19.12-8.08,5.92-5.84,8.92-13.69,8.24-21.55l-.11-1.24-1.24-.12c-7.85-.79-15.74,2.11-21.66,7.95-2.19,2.16-3.98,4.6-5.33,7.21v-14.26c.33.01.65.02.98.02,6.99,0,13.84-2.87,19.12-8.08,5.92-5.84,8.92-13.69,8.24-21.55l-.11-1.24-1.24-.12c-7.85-.79-15.74,2.11-21.66,7.95-2.19,2.16-3.98,4.6-5.33,7.21v-8.77c5.73-5.03,9.01-12.46,9.01-20.52,0-7.5-2.84-14.46-7.86-19.45,29.99,1.39,53.96,26.22,53.96,56.54ZM143.92,153.29c-6.49,3.13-13.67,5.06-21.23,5.49-5.23-18.29-21.94-30.95-41.09-30.95-4.03,0-8,.56-11.83,1.66-3.45-6.27-5.74-13.26-6.6-20.68,5.99-1.79,12.23-2.72,18.55-2.72,29.04,0,54.44,19.35,62.21,47.19ZM122.68,116.92c.11-.08.21-.15.32-.23,10.29-7.19,22.38-10.98,34.98-10.98,6.04,0,11.98.89,17.7,2.61-.79,7.43-3.02,14.43-6.41,20.72-3.41-.79-6.92-1.21-10.46-1.21-7.32,0-14.54,1.77-21.01,5.09-4.15-6.16-9.27-11.55-15.12-16ZM128.33,76.79c4.96-4.89,11.45-7.46,17.98-7.19.19,6.53-2.47,12.99-7.43,17.88-4.96,4.89-11.45,7.47-17.98,7.19-.19-6.53,2.47-12.99,7.43-17.88ZM119.39,4.67c4.79,4.45,7.51,10.88,7.51,17.85s-2.72,13.4-7.51,17.85c-4.79-4.45-7.51-10.88-7.51-17.85s2.72-13.4,7.51-17.85ZM128.33,46.73c4.96-4.89,11.45-7.46,17.98-7.19.19,6.53-2.47,12.99-7.43,17.88-4.96,4.89-11.45,7.47-17.98,7.19-.19-6.53,2.47-12.99,7.43-17.88ZM62.78,59.61c0-30.33,23.97-55.16,53.96-56.54-5.02,4.99-7.86,11.95-7.86,19.45,0,8.06,3.28,15.49,9.01,20.52v8.77c-1.35-2.61-3.14-5.05-5.33-7.21-5.92-5.84-13.81-8.74-21.65-7.95l-1.24.12-.11,1.24c-.68,7.85,2.32,15.71,8.24,21.55,5.28,5.21,12.13,8.08,19.12,8.08.32,0,.65-.01.98-.02v14.26c-1.35-2.61-3.14-5.05-5.33-7.21-5.92-5.84-13.81-8.74-21.65-7.95l-1.24.12-.11,1.24c-.68,7.85,2.32,15.71,8.24,21.55,5.28,5.21,12.13,8.08,19.12,8.08.32,0,.65-.01.98-.02v15.93c-10.55-6.68-23-10.49-36.17-10.49-6.41,0-12.73.9-18.82,2.67-.07-1.15-.12-2.32-.12-3.49v-42.67ZM117.88,64.61c-6.53.28-13.02-2.3-17.98-7.19-4.96-4.89-7.63-11.35-7.43-17.88,6.52-.27,13.02,2.3,17.98,7.19,4.96,4.89,7.63,11.35,7.43,17.88ZM117.88,94.67c-6.53.27-13.02-2.3-17.98-7.19-4.96-4.89-7.63-11.35-7.43-17.88,6.52-.27,13.02,2.3,17.98,7.19,4.96,4.89,7.63,11.35,7.43,17.88ZM71.35,132.17c3.33-.89,6.77-1.34,10.25-1.34,17.55,0,32.9,11.44,38,28.05-.07,0-.14,0-.21,0-20.25,0-38.03-10.69-48.04-26.72ZM146.64,151.88c-1.7-5.87-4.14-11.38-7.22-16.43,5.98-3.02,12.63-4.62,19.38-4.62,3,0,5.98.33,8.89.94-5.14,8.39-12.41,15.35-21.05,20.11Z"/>
      <g>
        <path class="cls-1" d="M45.63,202.34h3.15c1.35,0,2.46-.22,3.34-.67.88-.44,1.54-1.06,1.98-1.85.44-.79.66-1.68.66-2.68v-.32c0-1.01-.22-1.91-.66-2.69-.44-.78-1.1-1.39-1.98-1.84s-2-.67-3.34-.67h-4.9v16.85h1.75v-6.14ZM49.08,193.16c.9,0,1.64.17,2.21.51.57.34.99.79,1.26,1.37.28.58.41,1.22.41,1.94s-.14,1.34-.41,1.92-.7,1.03-1.26,1.38c-.57.34-1.3.52-2.21.52h-3.45v-7.63h3.45Z"/>
        <path class="cls-1" d="M64.71,202.11h3.49c.09,0,.17,0,.26-.01l4.92,6.38h2.14l-5.18-6.61c.36-.09.71-.2,1.02-.34.86-.39,1.52-.96,1.98-1.72s.69-1.68.69-2.77v-.32c0-1.09-.23-2.01-.68-2.77-.45-.76-1.11-1.33-1.98-1.72-.87-.39-1.92-.59-3.16-.59h-5.24v16.85h1.75v-6.37ZM68.51,193.16c.83,0,1.52.17,2.07.49.55.33.97.77,1.24,1.32s.41,1.18.41,1.88-.14,1.33-.41,1.88-.69.99-1.24,1.31c-.55.32-1.24.48-2.07.48h-3.79v-7.38h3.79Z"/>
        <polygon class="cls-1" points="94.69 206.98 84.15 206.98 83.97 206.68 94.34 193.92 94.34 191.69 82.5 191.69 82.5 193.19 92.51 193.19 92.68 193.48 82.32 206.24 82.32 208.47 94.69 208.47 94.69 206.98"/>
        <polygon class="cls-1" points="108.72 200.52 107.36 200.52 102.76 191.69 100.92 191.69 106.32 201.9 107.15 201.9 107.15 208.47 108.87 208.47 108.87 201.9 109.72 201.9 114.8 191.69 113.08 191.69 108.72 200.52"/>
        <path class="cls-1" d="M123.72,208.19c.97.45,2.15.68,3.56.68,1.32,0,2.46-.21,3.42-.64s1.71-1.03,2.24-1.79c.53-.77.79-1.64.79-2.62,0-.87-.21-1.64-.64-2.29-.43-.65-1.05-1.18-1.85-1.59-.8-.41-1.77-.66-2.91-.75l-1.93-.18c-1.01-.08-1.79-.38-2.32-.9-.54-.52-.8-1.16-.8-1.91,0-.6.14-1.15.42-1.66.28-.5.72-.91,1.31-1.22s1.34-.46,2.24-.46c.95,0,1.72.17,2.32.49.6.33,1.04.76,1.31,1.3.28.54.41,1.11.41,1.72h1.75c0-1.01-.23-1.9-.69-2.67-.46-.77-1.12-1.37-1.99-1.8-.87-.44-1.91-.66-3.12-.66s-2.22.21-3.07.64c-.85.43-1.51,1.01-1.97,1.75-.46.74-.69,1.59-.69,2.55,0,1.27.42,2.29,1.28,3.07.85.77,2,1.22,3.44,1.34l1.93.18c1.27.11,2.23.43,2.86.98.64.54.95,1.22.95,2.04,0,.64-.17,1.23-.52,1.75-.34.52-.87.93-1.56,1.24s-1.58.46-2.63.46c-1.15,0-2.07-.17-2.77-.52s-1.2-.8-1.52-1.36c-.31-.56-.47-1.16-.47-1.8h-1.75c0,1.01.25,1.92.75,2.72.5.8,1.23,1.43,2.2,1.88Z"/>
        <polygon class="cls-1" points="145.38 208.47 147.12 208.47 147.12 193.28 152.36 193.28 152.36 191.69 140.13 191.69 140.13 193.28 145.38 193.28 145.38 208.47"/>
        <path class="cls-1" d="M169.03,203.14l2.03,5.33h1.79l-6.39-16.78h-3.13l-6.18,16.78h1.75l1.95-5.33h8.19ZM164.44,193.28h.84l3.14,8.28h-7.01l3.02-8.28Z"/>
        <polygon class="cls-1" points="182.48 193.28 182.75 193.28 191.95 208.47 194.89 208.47 194.89 191.69 193.21 191.69 193.21 206.89 192.94 206.89 183.74 191.69 180.82 191.69 180.82 208.47 182.48 208.47 182.48 193.28"/>
        <polygon class="cls-1" points="191.99 186.68 189.99 186.68 187.19 190.24 188.8 190.24 191.99 186.68"/>
      </g>
      <g>
        <polygon class="cls-1" points="27.18 252.92 26.5 252.92 13.1 223.84 0 223.84 0 259.39 7.4 259.39 7.4 230.31 8.09 230.31 21.48 259.39 34.68 259.39 34.68 223.84 27.18 223.84 27.18 252.92"/>
        <path class="cls-1" d="M55.92,223.84l-11.74,35.56h7.99l2.82-8.82h14.85l2.89,8.82h8.28l-12.18-35.56h-12.91ZM57.1,243.95l4.34-13.59h1.78l4.45,13.59h-10.57Z"/>
        <polygon class="cls-1" points="84.42 230.8 94.4 230.8 94.4 259.39 102.39 259.39 102.39 230.8 112.42 230.8 112.42 223.84 84.42 223.84 84.42 230.8"/>
        <path class="cls-1" d="M144.72,245.22c0,1.59-.29,2.96-.88,4.09-.58,1.14-1.44,2.01-2.56,2.63-1.12.62-2.51.93-4.17.93s-3-.31-4.12-.93c-1.12-.62-1.98-1.5-2.58-2.65-.6-1.15-.9-2.51-.9-4.07v-21.38h-7.99v21.09c0,3.15.6,5.88,1.8,8.18s2.96,4.08,5.29,5.33c2.32,1.25,5.16,1.88,8.5,1.88s6.22-.63,8.52-1.88c2.31-1.25,4.06-3.03,5.26-5.33,1.2-2.31,1.8-5.03,1.8-8.18v-21.09h-7.99v21.38Z"/>
        <path class="cls-1" d="M191.55,242.81c1.18-1.74,1.78-3.92,1.78-6.55v-.78c0-2.66-.58-4.87-1.75-6.62-1.17-1.75-2.84-3.08-5.02-3.97s-4.74-1.34-7.7-1.34h-13.98v35.85h7.99v-11.4h5.82l7.77,11.4h9.25l-9.09-12.74c2.11-.86,3.75-2.14,4.92-3.85ZM172.87,230.31h6.62c1.17,0,2.18.24,3.04.71.86.47,1.53,1.14,2,2,.47.86.71,1.86.71,3s-.24,2.14-.71,3-1.14,1.53-2,2-1.88.71-3.04.71h-6.62v-11.4Z"/>
        <path class="cls-1" d="M230.5,259.39h8.28l-12.18-35.56h-12.91l-11.74,35.56h7.99l2.81-8.82h14.85l2.89,8.82ZM214.87,243.95l4.34-13.59h1.78l4.45,13.59h-10.57Z"/>
      </g>
      <g>
        <path class="cls-1" d="M28.75,296.27c-.85,0-1.57-.14-2.16-.41-.58-.27-1.03-.65-1.33-1.14s-.45-1.04-.45-1.65h1.06c0,.39.09.75.29,1.09.19.34.5.61.92.82.42.21.98.31,1.68.31.64,0,1.17-.09,1.59-.28s.74-.44.95-.75.31-.67.31-1.06c0-.49-.19-.9-.58-1.23-.38-.33-.96-.53-1.73-.59l-1.17-.11c-.87-.07-1.56-.35-2.08-.81s-.77-1.09-.77-1.86c0-.58.14-1.1.42-1.54.28-.44.67-.8,1.19-1.06.51-.26,1.13-.39,1.86-.39s1.36.13,1.88.4c.52.26.92.63,1.2,1.09.28.46.42,1,.42,1.61h-1.06c0-.37-.08-.72-.25-1.04-.17-.32-.43-.59-.79-.78-.36-.2-.83-.3-1.4-.3s-1,.09-1.36.28-.62.43-.79.74c-.17.31-.26.64-.26,1,0,.45.16.84.49,1.15.32.31.79.5,1.4.54l1.17.11c.69.05,1.27.21,1.76.45.49.25.86.57,1.12.96.26.39.39.86.39,1.38,0,.59-.16,1.12-.48,1.59-.32.46-.77.83-1.36,1.09-.58.26-1.28.39-2.07.39Z"/>
        <path class="cls-1" d="M35.45,292.82v-.92l1.45-.85v.92l-1.45.85ZM36.58,296.03v-10.15h1.06v10.15h-1.06ZM37.26,291.8v-.92l2.89-1.68v.92l-2.89,1.68ZM37.36,296.03v-.96h4.77v.96h-4.77Z"/>
        <path class="cls-1" d="M49.76,296.27c-.88,0-1.65-.16-2.29-.47-.65-.32-1.19-.73-1.61-1.25s-.75-1.08-.96-1.7c-.21-.61-.32-1.21-.32-1.79v-.25c0-.62.11-1.24.33-1.86.22-.62.54-1.17.98-1.68s.98-.9,1.63-1.2c.65-.3,1.4-.45,2.25-.45s1.62.15,2.26.45c.64.3,1.18.7,1.62,1.2s.76,1.06.98,1.68c.22.62.33,1.24.33,1.86v.26c0,.58-.1,1.18-.31,1.79-.21.61-.53,1.17-.96,1.69s-.97.94-1.62,1.25c-.65.31-1.41.47-2.3.47ZM49.76,295.29c.65,0,1.23-.12,1.74-.35.51-.24.94-.56,1.29-.97.35-.41.62-.88.81-1.4.19-.52.28-1.06.28-1.63s-.09-1.15-.28-1.67c-.19-.52-.46-.98-.81-1.38s-.79-.72-1.3-.95c-.51-.23-1.08-.35-1.72-.35s-1.2.12-1.71.35c-.51.23-.94.55-1.3.95-.36.4-.63.87-.82,1.38-.19.52-.29,1.08-.29,1.67s.09,1.11.28,1.63c.19.52.45.99.81,1.4.35.41.79.74,1.3.97.51.24,1.09.35,1.73.35Z"/>
        <path class="cls-1" d="M58.76,296.03v-10.15h1.77l5.56,9.19h.44l-.28.22v-9.42h1.02v10.15h-1.78l-5.56-9.19h-.44l.28-.22v9.42h-1Z"/>
        <path class="cls-1" d="M71.84,296.03v-10.15h1.06v10.15h-1.06ZM72.64,286.84v-.96h4.92v.96h-4.92ZM72.64,291.34v-.95h4.6v.95h-4.6ZM72.64,296.03v-.96h5.08v.96h-5.08Z"/>
        <path class="cls-1" d="M85.86,296.27c-.91,0-1.68-.16-2.33-.48-.64-.32-1.17-.74-1.57-1.26-.4-.52-.7-1.08-.88-1.69-.19-.61-.28-1.2-.28-1.77v-.26c0-.62.09-1.24.29-1.86.19-.62.49-1.17.89-1.68.4-.5.92-.9,1.55-1.2.63-.3,1.38-.45,2.24-.45s1.62.15,2.26.46c.64.31,1.14.74,1.52,1.29s.61,1.2.7,1.95h-1.07c-.07-.6-.27-1.11-.58-1.51-.32-.4-.72-.71-1.2-.91-.49-.2-1.03-.31-1.62-.31-.64,0-1.2.11-1.69.34-.49.23-.89.54-1.22.94-.32.4-.57.87-.74,1.39-.17.52-.25,1.08-.25,1.68s.08,1.11.24,1.63c.16.52.41.99.74,1.4.33.41.75.74,1.25.97.5.24,1.08.35,1.75.35.93,0,1.71-.23,2.34-.7.63-.47,1.02-1.14,1.17-2.02h1.07c-.1.7-.34,1.32-.72,1.88-.38.56-.89,1-1.54,1.33-.64.32-1.42.49-2.32.49Z"/>
        <path class="cls-1" d="M93.26,296.03v-1.35l6.41-7.9-.04.35-.32-.54.22.19h-6.16v-.9h7.16v1.35l-6.43,7.9.03-.39.38.64-.29-.25h6.52v.9h-7.48Z"/>
        <path class="cls-1" d="M104.41,296.03v-10.15h1.77l5.56,9.19h.44l-.28.22v-9.42h1.02v10.15h-1.78l-5.56-9.19h-.44l.28-.22v9.42h-1Z"/>
        <path class="cls-1" d="M117.48,296.03v-10.15h1.06v10.15h-1.06ZM118.29,286.84v-.96h4.92v.96h-4.92ZM118.29,291.34v-.95h4.6v.95h-4.6ZM118.29,296.03v-.96h5.08v.96h-5.08Z"/>
        <path class="cls-1" d="M133.57,296.03l-2.81-10.15h1.08l2.55,9.47-.49-.28h1.35l-.53.28,2.07-9.03h1l-2.28,9.71h-1.95ZM139.68,296.03l-2.5-9.71h1.03l2.31,9.03-.51-.28h1.38l-.53.28,2.29-9.47h1.06l-2.57,10.15h-1.95Z"/>
        <path class="cls-1" d="M146.88,296.03v-1.35l6.41-7.9-.04.35-.32-.54.22.19h-6.16v-.9h7.16v1.35l-6.43,7.9.03-.39.38.64-.29-.25h6.52v.9h-7.48Z"/>
        <path class="cls-1" d="M162.23,296.27c-.83,0-1.57-.14-2.22-.42-.64-.28-1.18-.66-1.62-1.15-.44-.49-.77-1.05-.99-1.68-.23-.63-.34-1.31-.34-2.01v-.25c0-.65.11-1.28.33-1.89s.54-1.16.95-1.65c.42-.49.94-.88,1.56-1.17.62-.29,1.33-.43,2.11-.43s1.56.16,2.2.47,1.16.74,1.55,1.3c.39.56.62,1.2.69,1.93h-1.07c-.07-.59-.27-1.09-.59-1.5-.32-.41-.72-.71-1.2-.92-.48-.2-1.01-.31-1.57-.31-.59,0-1.13.11-1.61.32-.48.21-.89.51-1.22.9s-.59.85-.77,1.37c-.18.52-.27,1.1-.27,1.72,0,.66.09,1.26.28,1.8.19.54.45,1.01.81,1.4.35.39.78.69,1.29.9.51.21,1.08.32,1.73.32.8,0,1.5-.15,2.11-.47s1.08-.72,1.41-1.23l-.42,1.31v-3h1v2.53c-.44.57-1,1.01-1.7,1.33s-1.5.48-2.41.48ZM161.85,292.15v-.89h5.38v.89h-5.38Z"/>
        <path class="cls-1" d="M175.12,296.27c-.88,0-1.65-.16-2.29-.47-.65-.32-1.19-.73-1.61-1.25s-.75-1.08-.96-1.7c-.21-.61-.32-1.21-.32-1.79v-.25c0-.62.11-1.24.33-1.86.22-.62.54-1.17.98-1.68s.98-.9,1.63-1.2c.65-.3,1.4-.45,2.25-.45s1.62.15,2.26.45c.64.3,1.18.7,1.62,1.2s.76,1.06.98,1.68c.22.62.33,1.24.33,1.86v.26c0,.58-.1,1.18-.31,1.79-.21.61-.53,1.17-.96,1.69s-.97.94-1.62,1.25c-.65.31-1.41.47-2.3.47ZM175.12,295.29c.65,0,1.23-.12,1.74-.35.51-.24.94-.56,1.29-.97.35-.41.62-.88.81-1.4.19-.52.28-1.06.28-1.63s-.09-1.15-.28-1.67c-.19-.52-.46-.98-.81-1.38s-.79-.72-1.3-.95c-.51-.23-1.08-.35-1.72-.35s-1.2.12-1.71.35c-.51.23-.94.55-1.3.95-.36.4-.63.87-.82,1.38-.19.52-.29,1.08-.29,1.67s.09,1.11.28,1.63c.19.52.45.99.81,1.4.35.41.79.74,1.3.97.51.24,1.09.35,1.73.35ZM174.46,285l1.7-2.16h1.21l-1.93,2.16h-.97Z"/>
        <path class="cls-1" d="M184.12,296.03v-10.19h1.06v10.19h-1.06ZM184.74,292.18v-.95h2.73c.5,0,.92-.1,1.25-.29s.58-.46.75-.79.25-.71.25-1.14-.08-.81-.25-1.14-.42-.6-.75-.8-.75-.3-1.25-.3h-2.73v-.93h2.55c.75,0,1.39.12,1.91.35.52.24.92.58,1.2,1.04s.41,1.02.41,1.68v.2c0,.66-.14,1.22-.42,1.68-.28.46-.68.81-1.2,1.04-.52.24-1.15.36-1.91.36h-2.55ZM190.42,296.03l-3.46-4.49h1.24l3.52,4.49h-1.29Z"/>
        <path class="cls-1" d="M194.44,296.03v-1.35l6.41-7.9-.04.35-.32-.54.22.19h-6.16v-.9h7.16v1.35l-6.43,7.9.03-.39.38.64-.29-.25h6.52v.9h-7.48Z"/>
        <path class="cls-1" d="M204.46,296.03l3.74-10.15h1.89l3.87,10.15h-1.08l-3.6-9.49.57.29h-1.46l.6-.29-3.46,9.49h-1.06ZM206.47,292.8l.35-.96h4.72l.36.96h-5.42Z"/>
      </g>
    </g>
  </g>
</svg>