<svg width="87" height="87" viewBox="0 0 87 87" fill="none" xmlns="http://www.w3.org/2000/svg">
<path d="M80.1868 13.4814H6.81319C3.05639 13.4814 0 16.5378 0 20.2946V66.7052C0 70.462 3.05639 73.5184 6.81319 73.5184H80.1868C83.9434 73.5184 87 70.462 87 66.7052V20.2946C87 16.5378 83.9436 13.4814 80.1868 13.4814ZM83.6016 66.7051C83.6016 68.588 82.0697 70.1198 80.1868 70.1198H6.81319C4.93028 70.1198 3.39844 68.5881 3.39844 66.7051V20.2946C3.39844 18.4117 4.93028 16.8799 6.81319 16.8799H80.1868C82.0697 16.8799 83.6016 18.4117 83.6016 20.2946V66.7051Z" fill="#A4804D"/>
<path d="M40.549 41.1411L35.982 41.0233C35.7357 40.3858 35.389 39.798 34.9613 39.2799L37.0957 35.1158C37.5076 34.3121 37.5587 33.367 37.2361 32.5232C36.9141 31.6815 36.2478 31.0141 35.408 30.6917C31.9992 29.3833 28.2448 29.3833 24.836 30.6917C23.9963 31.0141 23.33 31.6815 23.008 32.5232C22.6853 33.367 22.7363 34.3119 23.1483 35.116L25.2826 39.2799C24.855 39.798 24.5082 40.3858 24.2618 41.0233L19.6949 41.1411C18.7955 41.1642 17.945 41.5713 17.3615 42.2576C16.7758 42.9467 16.5102 43.8563 16.6329 44.7533C17.1295 48.382 18.9324 51.6876 21.7089 54.0609C22.2862 54.5544 23.0187 54.8213 23.7687 54.8213C23.9113 54.8213 24.0545 54.8116 24.1974 54.7921C25.0929 54.6694 25.8958 54.168 26.4003 53.4161L29.0225 49.5084C29.3796 49.5719 29.7469 49.6051 30.1218 49.6051C30.4966 49.6051 30.864 49.5719 31.221 49.5084L33.8434 53.4161C34.3479 54.1678 35.1508 54.6693 36.0463 54.7919C36.1892 54.8115 36.3324 54.8212 36.475 54.8212C37.225 54.8212 37.9575 54.5542 38.5346 54.0608C41.3113 51.6873 43.114 48.3818 43.6108 44.7528C43.7335 43.8559 43.4679 42.9465 42.8822 42.2573C42.2989 41.5713 41.4484 41.1642 40.549 41.1411ZM33.9617 33.7796L32.144 37.3257C31.5092 37.1083 30.829 36.9904 30.1218 36.9904C29.4147 36.9904 28.7345 37.1083 28.0997 37.3255L26.282 33.7794C28.768 32.8858 31.476 32.8859 33.9617 33.7796ZM23.7225 51.3077C21.7502 49.5436 20.4502 47.1545 20.0352 44.5321L23.9409 44.4313C24.1963 45.8391 24.9189 47.0855 25.9408 48.002L23.7225 51.3077ZM27.2377 43.2979C27.2377 41.694 28.5315 40.389 30.1219 40.389C31.7124 40.389 33.0062 41.694 33.0062 43.2979C33.0062 44.9018 31.7122 46.2068 30.1219 46.2068C28.5316 46.2068 27.2377 44.9018 27.2377 43.2979ZM36.5212 51.3075L34.3029 48.0019C35.3249 47.0853 36.0475 45.8391 36.3029 44.4311L40.2083 44.5319C39.7937 47.1543 38.4933 49.5434 36.5212 51.3075Z" fill="#A4804D"/>
<path d="M50.2003 21.6665H10.043C9.10449 21.6665 8.34375 22.4272 8.34375 23.3657V63.6338C8.34375 64.5723 9.10449 65.333 10.043 65.333H50.2003C51.1386 65.333 51.8995 64.5723 51.8995 63.6338V23.3657C51.8995 22.4272 51.1386 21.6665 50.2003 21.6665ZM48.501 31.9828C46.7622 29.1903 44.411 26.8206 41.6379 25.0648H48.501V31.9828ZM48.3884 43.4998C48.3884 53.6312 40.1939 61.8736 30.1216 61.8736C20.0493 61.8736 11.855 53.6312 11.855 43.4998C11.855 33.3683 20.0495 25.1259 30.1216 25.1259C40.1939 25.1259 48.3884 33.3683 48.3884 43.4998ZM18.6052 25.0649C15.8322 26.8207 13.481 29.1905 11.7422 31.9828V25.0649H18.6052ZM11.7422 55.0167C13.481 57.8091 15.8322 60.1788 18.6052 61.9346H11.7422V55.0167ZM41.6379 61.9346C44.4109 60.1788 46.7621 57.8091 48.501 55.0166V61.9346H41.6379Z" fill="#A4804D"/>
<path d="M60.4767 25.0651C61.1854 25.0651 61.834 24.6065 62.0743 23.9411C62.3157 23.2728 62.1054 22.503 61.5545 22.0527C60.9902 21.5916 60.1696 21.5428 59.5567 21.9385C58.9666 22.3195 58.6638 23.0502 58.8192 23.7367C58.9924 24.5023 59.6901 25.0651 60.4767 25.0651Z" fill="#A4804D"/>
<path d="M78.5259 22.7169C78.2517 22.048 77.5558 21.6201 76.8354 21.6723C76.1195 21.7241 75.503 22.2342 75.3161 22.9266C75.1344 23.5997 75.3982 24.3426 75.9672 24.7467C76.5433 25.1558 77.3254 25.1665 77.9111 24.7711C78.5694 24.3264 78.8314 23.4502 78.5259 22.7169Z" fill="#A4804D"/>
<path d="M62.0467 62.985C61.7741 62.3201 61.082 61.8912 60.3656 61.9403C59.6652 61.9884 59.0577 62.4698 58.8515 63.1413C58.6476 63.8054 58.8861 64.5524 59.436 64.9767C60.0022 65.4137 60.7949 65.4462 61.3966 65.0611C62.0774 64.6253 62.3578 63.7317 62.0467 62.985Z" fill="#A4804D"/>
<path d="M78.526 62.9848C78.256 62.3262 77.5761 61.8995 76.8657 61.9379C76.1585 61.9763 75.5377 62.4642 75.3314 63.1412C75.1284 63.8078 75.3665 64.5592 75.9224 64.9816C76.4963 65.4176 77.2998 65.4465 77.9007 65.046C78.5659 64.6027 78.8335 63.7231 78.526 62.9848Z" fill="#A4804D"/>
<path d="M72.7391 29.3091H63.6685C62.7301 29.3091 61.9692 30.0698 61.9692 31.0083C61.9692 31.9468 62.7301 32.7075 63.6685 32.7075H72.7391C73.6774 32.7075 74.4383 31.9468 74.4383 31.0083C74.4383 30.0698 73.6775 29.3091 72.7391 29.3091Z" fill="#A4804D"/>
<path d="M72.7391 41.8008H63.6685C62.7301 41.8008 61.9692 42.5615 61.9692 43.5C61.9692 44.4385 62.7301 45.1992 63.6685 45.1992H72.7391C73.6774 45.1992 74.4383 44.4385 74.4383 43.5C74.4383 42.5615 73.6775 41.8008 72.7391 41.8008Z" fill="#A4804D"/>
<path d="M72.7391 54.292H63.6685C62.7301 54.292 61.9692 55.0527 61.9692 55.9912C61.9692 56.9297 62.7301 57.6904 63.6685 57.6904H72.7391C73.6774 57.6904 74.4383 56.9297 74.4383 55.9912C74.4383 55.0527 73.6775 54.292 72.7391 54.292Z" fill="#A4804D"/>
</svg>
