<svg width="50" height="50" viewBox="0 0 50 50" fill="none" xmlns="http://www.w3.org/2000/svg">
<path d="M34.4227 32.0327C32.4119 32.0327 17.4162 32.0327 15.5776 32.0327C15.0383 32.0327 14.6011 32.47 14.6011 33.0093C14.6011 38.7434 19.2661 43.4083 25.0001 43.4083C30.7341 43.4083 35.3991 38.7433 35.3991 33.0093C35.3992 32.4699 34.962 32.0327 34.4227 32.0327ZM25.9768 33.9858H27.7926V35.8018H25.9768V33.9858ZM24.0236 33.9858V35.8018H22.2078V33.9858H24.0236ZM25.0002 41.4552C20.6733 41.4552 17.096 38.1846 16.6104 33.9858H20.2547V36.7783C20.2547 37.3177 20.692 37.7549 21.2313 37.7549H28.7691C29.3084 37.7549 29.7457 37.3177 29.7457 36.7783V33.9858H33.39C32.9044 38.1846 29.3271 41.4552 25.0002 41.4552Z" fill="white"/>
<path d="M18.8755 26.4478C20.9728 26.4478 22.6789 24.7416 22.6789 22.6445C22.6789 22.1052 22.2416 21.668 21.7023 21.668C21.163 21.668 20.7258 22.1052 20.7258 22.6445C20.7258 23.6646 19.8957 24.4946 18.8755 24.4946C17.8554 24.4946 17.0254 23.6646 17.0254 22.6445C17.0254 22.1052 16.5881 21.668 16.0488 21.668C15.5095 21.668 15.0723 22.1052 15.0723 22.6445C15.0723 24.7417 16.7784 26.4478 18.8755 26.4478Z" fill="white"/>
<path d="M34.8937 21.668C34.3544 21.668 33.9171 22.1052 33.9171 22.6445C33.9171 23.6646 33.0871 24.4946 32.0669 24.4946C31.0468 24.4946 30.2168 23.6646 30.2168 22.6445C30.2168 22.1052 29.7795 21.668 29.2402 21.668C28.701 21.668 28.2637 22.1052 28.2637 22.6445C28.2637 24.7417 29.9698 26.4478 32.0669 26.4478C34.1641 26.4478 35.8702 24.7416 35.8702 22.6445C35.8702 22.1052 35.433 21.668 34.8937 21.668Z" fill="white"/>
<path d="M43.3417 20.7863C41.3341 15.9022 37.431 11.991 32.5523 9.97295C32.8547 5.53818 29.321 1.88086 25 1.88086C20.6589 1.88086 17.1457 5.55977 17.4473 9.97314C12.5688 11.9912 8.66582 15.9025 6.6583 20.7864C2.86191 21.2429 0 24.4675 0 28.2979C0 32.1218 2.85508 35.352 6.6583 35.8096C9.62422 43.0251 16.7278 48.1194 25 48.1194C33.2722 48.1194 40.3758 43.0251 43.3417 35.8095C47.1369 35.3531 50 32.1299 50 28.2979C50 24.4734 47.1445 21.2444 43.3417 20.7863ZM25 3.83389C28.043 3.83389 30.527 6.26562 30.6148 9.28779C27.0017 8.21875 23.0852 8.19297 19.3852 9.28779C19.473 6.26562 21.957 3.83389 25 3.83389ZM5.91416 33.665C3.60332 32.9538 1.95312 30.805 1.95312 28.2979C1.95312 25.7975 3.59814 23.6433 5.91426 22.9301C4.93584 26.4114 4.93174 30.1679 5.91416 33.665ZM25 46.1663C15.5007 46.1663 7.81387 38.7277 7.18057 29.6182C6.41816 19.2599 14.6386 10.4296 25 10.4296C26.8541 10.4296 28.6432 10.7137 30.326 11.2402C29.5774 13.4648 27.4736 15.0722 25 15.0722C24.4606 15.0722 24.0234 15.5094 24.0234 16.0487C24.0234 16.588 24.4606 17.0253 25 17.0253C28.3093 17.0253 31.1275 14.8906 32.1552 11.9266C39.2016 15.0182 43.5861 22.335 42.7732 30.146C41.8454 39.1337 34.2287 46.1663 25 46.1663ZM44.0859 33.665C45.0633 30.1861 45.0689 26.4311 44.0859 22.9307C46.4009 23.6432 48.0469 25.7955 48.0469 28.2979C48.0469 30.8037 46.3978 32.9536 44.0859 33.665Z" fill="white"/>
</svg>
