<svg width="87" height="87" viewBox="0 0 87 87" fill="none" xmlns="http://www.w3.org/2000/svg">
<g clip-path="url(#blueprint-svg)">
<path d="M81.9023 0H18.0117C15.2009 0 12.9141 2.28681 12.9141 5.09766V22.9395C12.9141 23.8779 13.6748 24.6387 14.6133 24.6387C15.5518 24.6387 16.3125 23.8779 16.3125 22.9395V5.09766C16.3125 4.16071 17.0748 3.39844 18.0117 3.39844H28.377V10.1953C28.377 11.1338 29.1377 11.8945 30.0762 11.8945C31.0147 11.8945 31.7754 11.1338 31.7754 10.1953V3.39844H54.5436V22.9395C54.5436 23.8779 55.3043 24.6387 56.2428 24.6387H65.4998C66.4383 24.6387 67.199 23.8779 67.199 22.9395V18.0683C67.199 17.1298 66.4383 16.3691 65.4998 16.3691C64.5613 16.3691 63.8006 17.1298 63.8006 18.0683V21.2402H57.942V3.39844H81.9023C82.8393 3.39844 83.6016 4.16071 83.6016 5.09766V54.8848H57.942V45.1992H69.1582C70.0967 45.1992 70.8574 44.4383 70.8574 43.5C70.8574 42.5615 70.0967 41.8008 69.1582 41.8008H56.2428C55.3043 41.8008 54.5436 42.5615 54.5436 43.5V56.584C54.5436 57.5223 55.3043 58.2832 56.2428 58.2832H83.6016V68.9883C83.6016 69.9252 82.8393 70.6875 81.9023 70.6875H62.047C61.1085 70.6875 60.3478 71.4484 60.3478 72.3867C60.3478 73.325 61.1085 74.0859 62.047 74.0859H81.9023C84.7132 74.0859 87 71.7991 87 68.9883V5.09766C87 2.28681 84.7132 0 81.9023 0Z" fill="#A4804D"/>
<path d="M48.895 70.6875H45.3459V66.2823C45.3459 65.344 44.5851 64.5831 43.6466 64.5831H36.7881C35.8496 64.5831 35.0889 65.344 35.0889 66.2823C35.0889 67.2206 35.8496 67.9815 36.7881 67.9815H41.9474V70.6875H18.0117C17.0748 70.6875 16.3125 69.9253 16.3125 68.9883V58.2832H19.8809C20.8193 58.2832 21.5801 57.5223 21.5801 56.584C21.5801 55.6457 20.8193 54.8848 19.8809 54.8848H16.3125V45.1992H41.8008V48.5836C41.8008 49.5219 42.5615 50.2828 43.5 50.2828C44.4385 50.2828 45.1992 49.5219 45.1992 48.5836V43.5C45.1992 42.5616 44.4385 41.8008 43.5 41.8008H16.3125V39.1548C16.3125 38.2163 15.5518 37.4556 14.6133 37.4556C13.6748 37.4556 12.9141 38.2163 12.9141 39.1548V68.9883C12.9141 71.7992 15.2009 74.086 18.0117 74.086H48.895C49.8335 74.086 50.5942 73.3251 50.5942 72.3867C50.5942 71.4484 49.8335 70.6875 48.895 70.6875Z" fill="#A4804D"/>
<path d="M76.5905 42.2987C76.2744 41.9826 75.8361 41.8008 75.3892 41.8008C74.9423 41.8008 74.5039 41.9826 74.1861 42.2987C73.8701 42.6147 73.6899 43.0531 73.6899 43.5C73.6899 43.9469 73.8701 44.3853 74.1861 44.7012C74.5039 45.0172 74.9423 45.1992 75.3892 45.1992C75.8361 45.1992 76.2744 45.0174 76.5905 44.7012C76.9066 44.3853 77.0884 43.9469 77.0884 43.5C77.0884 43.0531 76.9066 42.6147 76.5905 42.2987Z" fill="#A4804D"/>
<path d="M43.5 11.2946C42.5615 11.2946 41.8008 12.0553 41.8008 12.9938V27.9554H24.9785C24.04 27.9554 23.2793 28.7161 23.2793 29.6546C23.2793 30.5931 24.04 31.3538 24.9785 31.3538H43.5C44.4385 31.3538 45.1992 30.5931 45.1992 29.6546V12.9938C45.1992 12.0553 44.4385 11.2946 43.5 11.2946Z" fill="#A4804D"/>
<path d="M86.5019 81.7447L84.1478 79.3902C83.4843 78.7269 82.4083 78.7269 81.7446 79.3902C81.2427 79.8924 81.1212 80.6302 81.3788 81.2471H17.1758C17.4334 80.6302 17.3119 79.8924 16.81 79.3902C16.1464 78.7269 15.0705 78.7269 14.4068 79.3902L12.0523 81.7447C11.3888 82.4082 11.3888 83.4842 12.0523 84.1479L14.4068 86.5023C14.7386 86.834 15.1735 87 15.6083 87C16.0431 87 16.4781 86.834 16.8098 86.5023C17.3118 86.0002 17.4333 85.2624 17.1757 84.6454H81.3786C81.121 85.2624 81.2425 86.0002 81.7444 86.5023C82.0763 86.834 82.5111 87 82.946 87C83.3808 87 83.8158 86.834 84.1475 86.5023L86.5019 84.1479C87.1655 83.4843 87.1655 82.4084 86.5019 81.7447Z" fill="#A4804D"/>
<path d="M5.75315 69.8243V5.6212C5.96266 5.70854 6.1856 5.75289 6.40871 5.75289C6.84354 5.75289 7.27854 5.58687 7.61023 5.25519C8.27377 4.59164 8.27377 3.5157 7.61023 2.85198L5.25579 0.497714C4.59224 -0.165661 3.5163 -0.165661 2.85258 0.497714L0.498147 2.85215C-0.165398 3.5157 -0.165398 4.59164 0.498147 5.25536C1.00027 5.75731 1.73807 5.8788 2.35505 5.6212V69.8243C1.73807 69.5667 1.00027 69.6882 0.498147 70.1901C-0.165398 70.8537 -0.165398 71.9296 0.498147 72.5934L2.85258 74.9478C3.18444 75.2795 3.61927 75.4455 4.0541 75.4455C4.48893 75.4455 4.92393 75.2795 5.25562 74.9478L7.61006 72.5934C8.2736 71.9298 8.2736 70.8539 7.61006 70.1901C7.10794 69.6882 6.37014 69.5667 5.75315 69.8243Z" fill="#A4804D"/>
<path d="M15.8146 28.4534C15.4986 28.1374 15.0602 27.9556 14.6133 27.9556C14.1664 27.9556 13.728 28.1374 13.4119 28.4534C13.0959 28.7695 12.9141 29.2079 12.9141 29.6548C12.9141 30.1017 13.0959 30.5401 13.4119 30.8561C13.728 31.1722 14.1664 31.354 14.6133 31.354C15.0602 31.354 15.4986 31.1722 15.8146 30.8561C16.1307 30.5401 16.3125 30.1017 16.3125 29.6548C16.3125 29.2079 16.1307 28.7695 15.8146 28.4534Z" fill="#A4804D"/>
<path d="M79.7574 22.2654C79.7136 21.3281 78.919 20.6052 77.9807 20.6474C77.0434 20.6912 76.3189 21.4866 76.3627 22.4241C76.3707 22.5945 76.3748 22.768 76.3748 22.9395C76.3748 23.8779 77.1355 24.6387 78.074 24.6387C79.0125 24.6387 79.7732 23.8779 79.7731 22.9395C79.7731 22.7152 79.7678 22.4885 79.7574 22.2654Z" fill="#A4804D"/>
<path d="M73.1458 10.8847C72.8374 10.6886 72.5174 10.5024 72.1949 10.3307C71.366 9.8898 70.3373 10.2045 69.8967 11.0329C69.4559 11.8614 69.7703 12.8903 70.5988 13.3311C70.8447 13.4617 71.0882 13.6036 71.323 13.7528C71.6056 13.9326 71.921 14.0182 72.2328 14.0182C72.7947 14.0182 73.3447 13.7394 73.6686 13.2301C74.1719 12.4381 73.9379 11.388 73.1458 10.8847Z" fill="#A4804D"/>
<path d="M78.109 16.245C77.9374 15.9227 77.7512 15.6027 77.5551 15.2941C77.0519 14.502 76.0015 14.2683 75.2096 14.7711C74.4175 15.2744 74.1833 16.3245 74.6866 17.1166C74.8362 17.3517 74.978 17.5956 75.1089 17.8413C75.4144 18.4156 76.0023 18.7427 76.6105 18.7427C76.8796 18.7427 77.1529 18.6785 77.4071 18.5432C78.2356 18.1024 78.5498 17.0736 78.109 16.245Z" fill="#A4804D"/>
<path d="M66.1732 8.68165C65.9498 8.67128 65.7233 8.66602 65.5 8.66602C64.5615 8.66602 63.8008 9.42676 63.8008 10.3652C63.8008 11.3037 64.5615 12.0645 65.5 12.0645C65.6713 12.0645 65.8448 12.0684 66.0161 12.0763C66.0429 12.0777 66.0696 12.0782 66.0961 12.0782C66.9984 12.0782 67.7499 11.3683 67.7919 10.4577C67.8354 9.52021 67.1107 8.72498 66.1732 8.68165Z" fill="#A4804D"/>
<path d="M43.0752 52.0089C42.8517 52.0089 42.6252 52.0141 42.4018 52.0245C41.4645 52.068 40.7398 52.8629 40.7831 53.8005C40.8252 54.7111 41.5766 55.4211 42.4791 55.4211C42.5056 55.4211 42.5323 55.4204 42.5591 55.4192C42.7304 55.4112 42.9039 55.4073 43.0752 55.4073C44.0137 55.4073 44.7744 54.6464 44.7744 53.7081C44.7744 52.7698 44.0137 52.0089 43.0752 52.0089Z" fill="#A4804D"/>
<path d="M38.6789 54.3752C38.2383 53.5468 37.2095 53.2325 36.3807 53.6732C36.0577 53.8452 35.7379 54.0316 35.4299 54.2272C34.6377 54.7305 34.4035 55.7806 34.9068 56.5728C35.2307 57.0822 35.7806 57.3609 36.3427 57.3609C36.6545 57.3609 36.9699 57.2752 37.2523 57.0955C37.4869 56.9463 37.7308 56.8044 37.977 56.6734C38.8055 56.2328 39.1197 55.2037 38.6789 54.3752Z" fill="#A4804D"/>
<path d="M33.3661 58.1141C32.5742 57.6108 31.5239 57.8445 31.0205 58.6367C30.8244 58.9451 30.6381 59.265 30.4665 59.5875C30.0257 60.4161 30.3401 61.445 31.1686 61.8857C31.423 62.021 31.6961 62.085 31.9652 62.085C32.5734 62.085 33.1615 61.7578 33.4668 61.1836C33.5975 60.9381 33.7394 60.6946 33.8886 60.4597C34.3919 59.6679 34.1581 58.6176 33.3661 58.1141Z" fill="#A4804D"/>
<path d="M30.5934 63.9902C29.6553 63.945 28.8607 64.6714 28.8174 65.6089C28.807 65.8325 28.8018 66.059 28.8018 66.2823C28.8018 67.2206 29.5625 67.9815 30.501 67.9815C31.4395 67.9815 32.2002 67.2208 32.2004 66.2823C32.2004 66.1112 32.2043 65.9375 32.2123 65.7662C32.2556 64.8288 31.5309 64.0336 30.5934 63.9902Z" fill="#A4804D"/>
</g>
<defs>
<clipPath id="blueprint-svg">
<rect width="87" height="87" fill="white"/>
</clipPath>
</defs>
</svg>
