<svg width="90" height="90" viewBox="0 0 90 90" fill="none" xmlns="http://www.w3.org/2000/svg">
<g clip-path="url(#car-parking-svg)">
<path d="M59.7653 46.6807H53.613V42.6791C53.613 39.264 50.8346 36.4857 47.4195 36.4857H14.1036C10.6883 36.4857 7.91011 39.264 7.91011 42.6791V46.6807H1.7578C0.787144 46.6807 0 47.4677 0 48.4385V54.0637C0 55.0345 0.787144 55.8215 1.7578 55.8215H3.5824C2.98211 56.8565 2.63653 58.0569 2.63653 59.3371V71.6417C1.66587 71.6417 0.878725 72.4287 0.878725 73.3995V76.0362C0.878725 77.8344 1.96505 79.3832 3.5156 80.0628V86.1329C3.5156 88.2652 5.25038 90 7.38277 90H11.0961C13.2285 90 14.9633 88.2652 14.9633 86.1329V80.4309H46.5596V86.1329C46.5596 88.2652 48.2944 90 50.4266 90H54.1403C56.2727 90 58.0075 88.2652 58.0075 86.1329V80.0626C59.5579 79.3831 60.6442 77.8344 60.6442 76.036V73.3993C60.6442 72.4285 59.857 71.6415 58.8864 71.6415V59.3369C58.8864 58.0567 58.5406 56.8563 57.9405 55.8213H59.7653C60.7359 55.8213 61.5231 55.0343 61.5231 54.0635V48.4384C61.5231 47.4677 60.7359 46.6807 59.7653 46.6807ZM14.1036 40.0013H47.4193C48.8959 40.0013 50.0972 41.2025 50.0972 42.6791V52.3059H11.4259L11.4257 42.6791C11.4255 41.2025 12.627 40.0013 14.1036 40.0013ZM9.66809 55.8215H51.8552C53.7937 55.8215 55.3708 57.3986 55.3708 59.3371V71.6417H6.15231V59.3371C6.15231 57.3986 7.72958 55.8215 9.66809 55.8215ZM3.5156 52.3059V50.1963H7.91011V52.3059H3.5156ZM11.0963 86.4842H7.38277C7.19222 86.4842 7.03121 86.3232 7.03121 86.1327V80.4307H11.4477V86.1327C11.4477 86.3232 11.2868 86.4842 11.0963 86.4842ZM54.4919 86.1327C54.4919 86.3232 54.3309 86.4842 54.1403 86.4842H50.4268C50.2362 86.4842 50.0754 86.3232 50.0754 86.1327V80.4307H54.4919V86.1327ZM56.2497 76.9151H5.27341C4.79687 76.9151 4.39433 76.5126 4.39433 76.0362V75.1573H57.1284V76.0362H57.1286C57.1286 76.5126 56.726 76.9151 56.2497 76.9151ZM58.0075 52.3059H53.613V50.1963H58.0075V52.3059Z" fill="#A4804D"/>
<path d="M14.3452 58.4582C11.4374 58.4582 9.07178 60.8238 9.07178 63.7316C9.07178 66.6394 11.4374 69.005 14.3452 69.005C17.2529 69.005 19.6186 66.6394 19.6186 63.7316C19.6186 60.8238 17.2529 58.4582 14.3452 58.4582ZM14.3452 65.4894C13.3759 65.4894 12.5874 64.7009 12.5874 63.7316C12.5874 62.7622 13.3759 61.9738 14.3452 61.9738C15.3144 61.9738 16.103 62.7623 16.103 63.7316C16.103 64.7009 15.3144 65.4894 14.3452 65.4894Z" fill="#A4804D"/>
<path d="M47.1777 58.4582C44.2699 58.4582 41.9043 60.8238 41.9043 63.7316C41.9043 66.6394 44.2699 69.005 47.1777 69.005C50.0855 69.005 52.4511 66.6394 52.4511 63.7316C52.4511 60.8238 50.0855 58.4582 47.1777 58.4582ZM47.1777 65.4894C46.2084 65.4894 45.4199 64.7009 45.4199 63.7316C45.4199 62.7622 46.2084 61.9738 47.1777 61.9738C48.147 61.9738 48.9355 62.7623 48.9355 63.7316C48.9355 64.7009 48.147 65.4894 47.1777 65.4894Z" fill="#A4804D"/>
<path d="M37.6694 58.6157H29.2978C28.327 58.6157 27.54 59.4026 27.54 60.3735C27.54 61.3443 28.3272 62.1313 29.2978 62.1313H37.6694C38.64 62.1313 39.4272 61.3443 39.4272 60.3735C39.4272 59.4026 38.64 58.6157 37.6694 58.6157Z" fill="#A4804D"/>
<path d="M23.8985 58.6164H23.8535C22.8828 58.6164 22.0957 59.4034 22.0957 60.3742C22.0957 61.345 22.8827 62.132 23.8535 62.132H23.8985C24.8692 62.132 25.6563 61.345 25.6563 60.3742C25.6563 59.4034 24.8692 58.6164 23.8985 58.6164Z" fill="#A4804D"/>
<path d="M37.6695 65.3317H37.6245C36.6538 65.3317 35.8667 66.1187 35.8667 67.0895C35.8667 68.0604 36.6538 68.8473 37.6245 68.8473H37.6695C38.6402 68.8473 39.4273 68.0604 39.4273 67.0895C39.4273 66.1187 38.6403 65.3317 37.6695 65.3317Z" fill="#A4804D"/>
<path d="M32.225 65.3312H23.8535C22.8828 65.3312 22.0957 66.1181 22.0957 67.089C22.0957 68.0596 22.8827 68.8468 23.8535 68.8468H32.225C33.1959 68.8468 33.9828 68.0598 33.9828 67.089C33.9828 66.1181 33.1959 65.3312 32.225 65.3312Z" fill="#A4804D"/>
<path d="M84.7264 0H63.6328C60.725 0 58.3594 2.36565 58.3594 5.27341V26.367C58.3594 29.2748 60.725 31.6404 63.6328 31.6404H72.4218V76.9151H70.3124C69.4641 76.9151 68.7367 77.521 68.5835 78.3553L66.8256 87.9244C66.7314 88.4375 66.8701 88.9661 67.2039 89.367C67.5379 89.768 68.0327 89.9998 68.5546 89.9998H79.8047C80.3266 89.9998 80.8213 89.768 81.1554 89.367C81.4892 88.9661 81.6279 88.4375 81.5337 87.9242L79.7757 78.3551C79.6225 77.5208 78.8951 76.9149 78.0468 76.9149H75.9374V31.6404H84.7264C87.6342 31.6404 89.9998 29.2748 89.9998 26.367V5.27341C90 2.36565 87.6342 0 84.7264 0ZM76.5827 80.4307L77.6947 86.4842H70.6649L71.7769 80.4307H76.5827ZM86.4842 26.367C86.4842 27.3363 85.6957 28.1248 84.7264 28.1248H63.6328C62.6635 28.1248 61.875 27.3363 61.875 26.367V5.27341C61.875 4.30415 62.6635 3.5156 63.6328 3.5156H84.7264C85.6957 3.5156 86.4842 4.30415 86.4842 5.27341V26.367Z" fill="#A4804D"/>
<path d="M74.1797 7.53778H70.248C69.2774 7.53778 68.4902 8.32475 68.4902 9.29558V17.1593V22.3448C68.4902 23.3156 69.2774 24.1026 70.248 24.1026C71.2187 24.1026 72.0058 23.3156 72.0058 22.3448V18.9171H74.1797C77.3172 18.9171 79.8695 16.3646 79.8695 13.2274C79.8697 10.0901 77.3172 7.53778 74.1797 7.53778ZM74.1797 15.4015H72.0058V11.0534H74.1797C75.3785 11.0534 76.3539 12.0286 76.3539 13.2274C76.3539 14.4263 75.3787 15.4015 74.1797 15.4015Z" fill="#A4804D"/>
</g>
<defs>
<clipPath id="car-parking-svg">
<rect width="90" height="90" fill="white"/>
</clipPath>
</defs>
</svg>
