<svg width="50" height="50" viewBox="0 0 50 50" fill="none" xmlns="http://www.w3.org/2000/svg">
<path d="M44.4145 36.7626C44.8678 36.7626 45.2615 36.4507 45.3652 36.0095L49.9737 16.3987C50.1175 15.7871 49.6533 15.1987 49.0231 15.1987H40.7051V3.42822C40.7051 2.88886 40.2678 2.45166 39.7285 2.45166H25.4901C24.9508 2.45166 24.5136 2.88886 24.5136 3.42822V7.35436H17.1349C16.5956 7.35436 16.1584 7.79156 16.1584 8.33091V15.1987H8.95354C8.84593 14.7158 7.94281 10.6621 7.81615 10.0936C7.8098 10.0838 7.64594 9.30044 6.84213 9.31538H0.976555C0.437204 9.31538 0 9.75258 0 10.2919C0 10.8313 0.437204 11.2685 0.976555 11.2685H6.07691C6.36733 12.5719 11.9185 37.4877 12.16 38.5717C12.5459 40.3642 14.1568 41.6652 15.9904 41.6652H17.1998C16.8631 42.2433 16.6692 42.9144 16.6692 43.6303C16.6692 45.7909 18.4269 47.5486 20.5874 47.5486C22.7479 47.5486 24.5056 45.7909 24.5056 43.6303C24.5056 42.9144 24.3116 42.2434 23.975 41.6652H38.7717C38.435 42.2433 38.2411 42.9144 38.2411 43.6303C38.2411 45.7909 39.9988 47.5486 42.1593 47.5486C44.3199 47.5486 46.0776 45.7909 46.0776 43.6303C46.0776 42.9144 45.8836 42.2434 45.547 41.6652H47.0621C47.6015 41.6652 48.0387 41.228 48.0387 40.6887C48.0387 40.1493 47.6015 39.7121 47.0621 39.7121H15.9904C15.0708 39.7121 14.2629 39.0596 14.0679 38.1538L13.7579 36.7626H44.4145ZM22.5525 43.6303C22.5525 44.7139 21.6709 45.5955 20.5874 45.5955C19.5039 45.5955 18.6223 44.7139 18.6223 43.6303C18.6223 42.5468 19.5039 41.6652 20.5874 41.6652C21.6709 41.6653 22.5525 42.5469 22.5525 43.6303ZM44.1244 43.6303C44.1244 44.7139 43.2428 45.5955 42.1592 45.5955C41.0757 45.5955 40.1941 44.7139 40.1941 43.6303C40.1941 42.5468 41.0757 41.6652 42.1592 41.6652C43.2428 41.6652 44.1244 42.5469 44.1244 43.6303ZM38.5471 17.1518L37.0426 25.0041H29.4083V17.1518H38.5471ZM29.4083 34.8095V26.9572H36.6684L35.1639 34.8095H29.4083ZM27.4552 25.0041H19.8208L18.3164 17.1518H27.4553V25.0041H27.4552ZM27.4552 26.9572V34.8095H21.6995L20.1951 26.9572H27.4552ZM43.6409 34.8095H37.1525L38.657 26.9572H45.4862L43.6409 34.8095ZM45.9451 25.0041H39.0312L40.5357 17.1518H47.7903L45.9451 25.0041ZM26.4667 4.40477H38.752V15.1987H30.3888V8.33091C30.3888 7.79156 29.9516 7.35436 29.4123 7.35436H26.4667V4.40477ZM18.1114 9.30747H28.4356V15.1987H18.1114V9.30747ZM16.3277 17.1518L17.8322 25.0041H11.1381L9.3886 17.1518H16.3277ZM11.5732 26.9572H18.2064L19.7109 34.8095H13.3227L11.5732 26.9572Z" fill="white"/>
</svg>
