<svg width="87" height="87" viewBox="0 0 87 87" fill="none" xmlns="http://www.w3.org/2000/svg">
<g clip-path="url(#clip0_90_1050)">
<path d="M81.8824 34.117C84.7042 34.117 87 31.8213 87 28.9994V25.5876C87 22.7657 84.7042 20.47 81.8824 20.47H78.4706V13.6464C78.4706 13.3496 78.3931 13.0579 78.2459 12.8002L71.4224 0.858974C70.7687 -0.285162 69.1143 -0.286185 68.4601 0.858974L61.6366 12.8002C61.4894 13.0579 61.4119 13.3496 61.4119 13.6464V20.47H52.0296V13.6464C52.0296 13.3496 51.9521 13.0579 51.8049 12.8002L44.9814 0.858974C44.3277 -0.285162 42.6733 -0.286185 42.0191 0.858974L35.1956 12.8002C35.0484 13.0579 34.9709 13.3496 34.9709 13.6464V20.47H25.5886V13.6464C25.5886 13.3496 25.5111 13.0579 25.3639 12.8002L18.5404 0.858974C17.8867 -0.285162 16.2323 -0.286185 15.5781 0.858974L8.75459 12.8002C8.60686 13.0577 8.52941 13.3494 8.52941 13.6464V20.47H5.11765C2.29578 20.47 0 22.7657 0 25.5876V28.9994C0 31.8213 2.29578 34.117 5.11765 34.117H8.52941V40.9406H5.11765C2.29578 40.9406 0 43.2363 0 46.0582V49.47C0 52.2918 2.29578 54.5876 5.11765 54.5876H8.52941V61.4111H5.11765C2.29578 61.4111 0 63.7069 0 66.5288V69.9406C0 72.7624 2.29578 75.0582 5.11765 75.0582H8.52941V83.5876H1.70588C0.763724 83.5876 0 84.3513 0 85.2935C0 86.2355 0.763724 86.9994 1.70588 86.9994H85.2941C86.2361 86.9994 87 86.2355 87 85.2935C87 84.3513 86.2361 83.5876 85.2941 83.5876H78.4706V75.0582H81.8824C84.7042 75.0582 87 72.7624 87 69.9406V66.5288C87 63.7069 84.7042 61.4111 81.8824 61.4111H78.4706V54.5876H81.8824C84.7042 54.5876 87 52.2918 87 49.47V46.0582C87 43.2363 84.7042 40.9406 81.8824 40.9406H78.4706V34.117H81.8824ZM81.8824 23.8817C82.823 23.8817 83.5882 24.647 83.5882 25.5876V28.9994C83.5882 29.94 82.823 30.7053 81.8824 30.7053H78.4706V23.8817H81.8824ZM52.0294 51.1758V44.3523H61.4118V51.1758H52.0294ZM61.4118 54.5876V61.4111H52.0294V54.5876H61.4118ZM52.0294 64.8229H61.4118V71.6464H52.0294V64.8229ZM61.4118 40.9406H52.0294V34.117H61.4118V40.9406ZM52.0294 75.0582H61.4118V83.5876H52.0294V75.0582ZM61.4118 23.8817V30.7053H52.0294V23.8817H61.4118ZM25.5882 51.1758V44.3523H34.9706V51.1758H25.5882ZM34.9706 54.5876V61.4111H25.5882V54.5876H34.9706ZM25.5882 64.8229H34.9706V71.6464H25.5882V64.8229ZM34.9706 40.9406H25.5882V34.117H34.9706V40.9406ZM25.5882 75.0582H34.9706V83.5876H25.5882V75.0582ZM34.9706 23.8817V30.7053H25.5882V23.8817H34.9706ZM5.11765 30.7053C4.17702 30.7053 3.41176 29.94 3.41176 28.9994V25.5876C3.41176 24.647 4.17702 23.8817 5.11765 23.8817H8.52941V30.7053H5.11765ZM5.11765 51.1758C4.17702 51.1758 3.41176 50.4106 3.41176 49.47V46.0582C3.41176 45.1176 4.17702 44.3523 5.11765 44.3523H8.52941V51.1758H5.11765ZM5.11765 71.6464C4.17702 71.6464 3.41176 70.8812 3.41176 69.9406V66.5288C3.41176 65.5882 4.17702 64.8229 5.11765 64.8229H8.52941V71.6464H5.11765ZM11.9412 83.5876V14.0993L17.0588 5.14347L22.1765 14.0993V83.5876H11.9412ZM38.3824 83.5876V14.0993L43.5 5.14347L48.6176 14.0993V83.5876H38.3824ZM64.8235 83.5876V14.0993L69.9412 5.14347L75.0588 14.0993V83.5876H64.8235ZM81.8824 64.8229C82.823 64.8229 83.5882 65.5882 83.5882 66.5288V69.9406C83.5882 70.8812 82.823 71.6464 81.8824 71.6464H78.4706V64.8229H81.8824ZM81.8824 44.3523C82.823 44.3523 83.5882 45.1176 83.5882 46.0582V49.47C83.5882 50.4106 82.823 51.1758 81.8824 51.1758H78.4706V44.3523H81.8824Z" fill="#A4804D"/>
<path d="M17.0587 28.6575C18.0008 28.6575 18.7645 27.8938 18.7645 26.9518C18.7645 26.0098 18.0008 25.2461 17.0587 25.2461C16.1167 25.2461 15.353 26.0098 15.353 26.9518C15.353 27.8938 16.1167 28.6575 17.0587 28.6575Z" fill="#A4804D"/>
<path d="M69.9411 25.2461C69.0015 25.2461 68.2354 26.0115 68.2354 26.9516C68.2354 27.8801 68.988 28.6573 69.9409 28.6573C70.887 28.6573 71.6466 27.8878 71.6466 26.9518C71.6468 26.0122 70.8817 25.2461 69.9411 25.2461Z" fill="#A4804D"/>
<path d="M44.6984 28.1596C45.3644 27.4935 45.3644 26.4137 44.6984 25.7477C44.0324 25.0817 42.9525 25.0817 42.2865 25.7477C41.6205 26.4137 41.6205 27.4935 42.2865 28.1596C42.9525 28.8256 44.0324 28.8256 44.6984 28.1596Z" fill="#A4804D"/>
<path d="M17.0584 66.5283C16.1188 66.5283 15.3525 67.2939 15.3525 68.234C15.3525 69.1627 16.1052 69.9399 17.0583 69.9399C18.0043 69.9399 18.764 69.1704 18.7641 68.2342C18.7641 67.2946 17.9989 66.5285 17.0584 66.5283Z" fill="#A4804D"/>
<path d="M69.9411 69.9402C70.8831 69.9402 71.6468 69.1766 71.6468 68.2345C71.6468 67.2925 70.8831 66.5288 69.9411 66.5288C68.999 66.5288 68.2354 67.2925 68.2354 68.2345C68.2354 69.1766 68.999 69.9402 69.9411 69.9402Z" fill="#A4804D"/>
<path d="M43.4997 66.5288C42.5601 66.5288 41.7939 67.2944 41.7939 68.2345C41.7939 69.1632 42.5468 69.9402 43.4997 69.9402C44.4457 69.9402 45.2054 69.1705 45.2054 68.2343C45.2054 67.2947 44.4401 66.5286 43.4997 66.5288Z" fill="#A4804D"/>
<path d="M17.0587 49.4695C18.0008 49.4695 18.7645 48.7059 18.7645 47.7638C18.7645 46.8218 18.0008 46.0581 17.0587 46.0581C16.1167 46.0581 15.353 46.8218 15.353 47.7638C15.353 48.7059 16.1167 49.4695 17.0587 49.4695Z" fill="#A4804D"/>
<path d="M69.9411 49.4695C70.8831 49.4695 71.6468 48.7059 71.6468 47.7638C71.6468 46.8218 70.8831 46.0581 69.9411 46.0581C68.999 46.0581 68.2354 46.8218 68.2354 47.7638C68.2354 48.7059 68.999 49.4695 69.9411 49.4695Z" fill="#A4804D"/>
<path d="M43.5001 46.0581C42.5605 46.0581 41.7944 46.8235 41.7944 47.7638C41.7944 48.6925 42.5471 49.4695 43.5001 49.4697C44.4462 49.4697 45.2059 48.7002 45.2059 47.764C45.2059 46.8242 44.4408 46.0581 43.5001 46.0581Z" fill="#A4804D"/>
</g>
<defs>
<clipPath id="clip0_90_1050">
<rect width="87" height="87" fill="white"/>
</clipPath>
</defs>
</svg>
