<svg width="87" height="87" viewBox="0 0 87 87" fill="none" xmlns="http://www.w3.org/2000/svg">
<g clip-path="url(#fences-svg)">
<path d="M44.4307 15.8403C44.1734 11.823 40.9645 8.60467 36.9534 8.32787C36.2308 5.99858 34.0558 4.30191 31.492 4.30191C30.7421 4.30191 30.0135 4.44584 29.3379 4.7206C27.4988 1.83465 24.2633 0 20.7655 0C15.7384 0 11.5568 3.628 10.752 8.46245C10.4645 8.45106 10.1768 8.4548 9.88999 8.47383C5.92758 8.73959 2.7373 11.9273 2.46882 15.8894C2.45115 16.1516 2.44605 16.4156 2.45353 16.6739C2.57842 21.0214 6.08476 24.4268 10.4358 24.4268H36.3888C36.3891 24.4268 36.389 24.4268 36.3893 24.4268C40.7315 24.4268 44.2682 21.0295 44.4412 16.6921C44.4523 16.4095 44.4487 16.1229 44.4307 15.8403ZM41.045 16.5574C40.9453 19.0644 38.8999 21.0283 36.3888 21.0282H10.4356C7.93623 21.0282 5.92231 19.0725 5.85061 16.5755C5.84619 16.4253 5.84908 16.2712 5.85961 16.1183C6.01339 13.8457 7.84396 12.0172 10.1177 11.8648C10.2207 11.8578 10.324 11.8543 10.4273 11.8543C10.7111 11.8543 10.9953 11.8803 11.2757 11.9321C11.3342 11.943 11.3926 11.9506 11.4511 11.9552C11.8103 11.9905 12.5477 11.9849 13.188 11.4843C13.6544 11.1199 13.9436 10.5868 14.007 9.97849C14.0106 9.9491 14.0133 9.9197 14.0152 9.89047C14.016 9.87756 14.0169 9.86481 14.0174 9.8519C14.1764 6.23324 17.1406 3.39844 20.7655 3.39844C23.5543 3.39844 26.0924 5.15186 27.081 7.76169C27.2847 8.29932 27.7462 8.69728 28.3078 8.81996C28.8689 8.94214 29.4545 8.77307 29.8636 8.36916C30.3005 7.9379 30.8787 7.70052 31.4916 7.70052C32.7633 7.70052 33.799 8.72991 33.8097 9.99922C33.809 10.0167 33.8087 10.0346 33.8084 10.0524C33.8036 10.5465 34.0141 11.0184 34.3854 11.3448C34.7565 11.6711 35.2498 11.8196 35.7412 11.752C36.0522 11.7088 36.3687 11.6967 36.6807 11.7156C39.016 11.8578 40.8895 13.7244 41.0389 16.0573C41.0494 16.2231 41.0516 16.3917 41.045 16.5574Z" fill="#A4804D"/>
<path d="M35.0608 57.0735C35.0387 56.9648 35.0064 56.8575 34.964 56.7557C34.9215 56.654 34.8688 56.5554 34.8076 56.4618C34.7465 56.37 34.6751 56.2817 34.5969 56.2035C34.5188 56.1253 34.4304 56.054 34.3386 55.9928C34.2454 55.9318 34.1468 55.879 34.0447 55.8365C33.9429 55.794 33.8358 55.7619 33.7269 55.7396C33.5077 55.6954 33.2817 55.6954 33.0625 55.7396C32.9538 55.7619 32.8469 55.794 32.7449 55.8365C32.643 55.879 32.5444 55.9318 32.451 55.9928C32.3591 56.054 32.2709 56.1253 32.1927 56.2035C32.1145 56.2817 32.043 56.3702 31.982 56.4618C31.9208 56.5552 31.8681 56.654 31.8257 56.7557C31.7832 56.8575 31.7509 56.9648 31.7288 57.0735C31.7067 57.1838 31.6948 57.2944 31.6948 57.4048C31.6948 57.8517 31.8768 58.2901 32.1929 58.606C32.271 58.6842 32.3594 58.7556 32.4511 58.8184C32.5444 58.8796 32.643 58.9323 32.7451 58.9748C32.8469 59.0172 32.9539 59.0495 33.0627 59.0716C33.1731 59.0935 33.2838 59.1039 33.394 59.1039C33.5062 59.1039 33.6168 59.0937 33.7269 59.0718C33.8358 59.0497 33.9427 59.0174 34.0447 58.9749C34.1466 58.9324 34.2452 58.8798 34.3386 58.8186C34.4306 58.7557 34.5188 58.6844 34.5969 58.6062C34.6751 58.528 34.7465 58.4414 34.8076 58.3479C34.8688 58.2562 34.9215 58.1576 34.964 58.0557C35.0064 57.952 35.0387 57.8466 35.0608 57.7379C35.0829 57.6274 35.0948 57.517 35.0948 57.4048C35.0948 57.2944 35.0829 57.1838 35.0608 57.0735Z" fill="#A4804D"/>
<path d="M11.6526 57.0734C11.6305 56.9646 11.5984 56.8574 11.5559 56.7556C11.5134 56.6538 11.4606 56.5553 11.3996 56.4617C11.3367 56.3699 11.2654 56.2815 11.1872 56.2034C11.109 56.1252 11.0222 56.0538 10.9287 55.9927C10.837 55.9317 10.7384 55.8788 10.6365 55.8364C10.5328 55.7939 10.4258 55.7618 10.3187 55.7395C10.0995 55.6953 9.87352 55.6953 9.65432 55.7395C9.54557 55.7618 9.43869 55.7939 9.33657 55.8364C9.23309 55.8788 9.13453 55.9317 9.04277 55.9927C8.94932 56.0538 8.86249 56.1252 8.78432 56.2034C8.70616 56.2815 8.63479 56.3701 8.57379 56.4617C8.51262 56.5551 8.45994 56.6538 8.41746 56.7556C8.37498 56.8574 8.3427 56.9646 8.32061 57.0734C8.29852 57.1837 8.28662 57.2943 8.28662 57.4047C8.28662 57.5169 8.29852 57.6273 8.32061 57.7378C8.3427 57.8465 8.37498 57.9519 8.41746 58.0555C8.45994 58.1575 8.51262 58.256 8.57379 58.3478C8.63479 58.4413 8.70616 58.5279 8.78432 58.6061C8.86249 58.6842 8.94932 58.7556 9.04277 58.8185C9.13453 58.8797 9.23309 58.9323 9.33657 58.9748C9.43852 59.0173 9.54557 59.0496 9.65432 59.0717C9.76307 59.0936 9.87522 59.1039 9.98567 59.1039C10.0963 59.1039 10.2083 59.0938 10.3185 59.0715C10.4256 59.0494 10.5326 59.0171 10.6363 58.9746C10.7383 58.9322 10.8368 58.8795 10.9286 58.8183C11.022 58.7554 11.1089 58.6841 11.187 58.6059C11.5031 58.29 11.6849 57.8516 11.6849 57.4047C11.6849 57.2943 11.6747 57.1837 11.6526 57.0734Z" fill="#A4804D"/>
<path d="M83.9896 68.9458C83.8343 68.301 83.3179 67.8053 82.6671 67.6767C82.4399 67.6316 79.2542 67.0238 75.6945 67.45V62.7671C75.6945 61.8288 74.9336 61.0679 73.9953 61.0679C73.7263 61.0679 73.4298 61.0679 73.1134 61.073C72.2623 59.6332 71.2606 58.3937 70.3675 57.4266V45.526C78.182 43.4448 83.9561 36.3067 83.9561 27.8453C83.9561 22.8807 81.94 18.1461 78.3929 14.7076C78.469 14.1389 78.5074 13.5635 78.5074 12.9875C78.5074 5.9048 72.7455 0.142578 65.6632 0.142578C58.5807 0.142578 52.8188 5.9048 52.8188 12.9875C52.8188 13.5635 52.8574 14.1389 52.9333 14.7076C49.3862 18.1461 47.3701 22.8808 47.3701 27.8453C47.3701 36.306 53.1433 43.4438 60.9572 45.5255V50.4931L57.8424 48.0891C57.2298 47.6164 56.3756 47.6171 55.764 48.0905L50.9655 51.8046L46.1361 48.0877C45.524 47.6169 44.6724 47.6174 44.0614 48.0893L39.2475 51.8048L34.4334 48.0893C33.8217 47.6171 32.9685 47.6171 32.3568 48.0893L27.5429 51.8048L22.7288 48.0893C22.1171 47.6171 21.264 47.6171 20.6522 48.0893L15.8383 51.8048L11.0243 48.0893C10.4126 47.6171 9.5594 47.6171 8.94768 48.0893L3.09557 52.6061C2.67875 52.928 2.43457 53.4246 2.43457 53.9512V85.3008C2.43457 86.2391 3.19548 87 4.13379 87H62.6564C62.8732 87 63.0807 86.9592 63.2714 86.8851C65.1899 86.8167 66.5707 86.5529 66.7176 86.5239C66.7862 86.5103 66.8531 86.4926 66.9186 86.4712C66.9838 86.4926 67.0509 86.5103 67.1196 86.5239C67.2883 86.5574 69.0897 86.9015 71.4645 86.9015C74.6436 86.9015 78.8503 86.2846 81.5412 83.4808V83.4809C86.2417 78.5828 84.0837 69.3371 83.9896 68.9458ZM11.6848 83.6016V64.195C11.6848 63.2567 10.9239 62.4958 9.98556 62.4958C9.04725 62.4958 8.28634 63.2567 8.28634 64.195V83.6016H5.83267V54.7861L9.98556 51.5807L14.1386 54.7861V83.6016H11.6848ZM17.5372 83.6016V54.7861L21.6901 51.5807L25.8432 54.7861V83.6016H17.5372ZM37.5477 83.6016H35.0939V64.195C35.0939 63.2567 34.333 62.4958 33.3947 62.4958C32.4564 62.4958 31.6955 63.2567 31.6955 64.195V83.6016H29.2418V54.7861L33.3947 51.5807L37.5477 54.7861V83.6016ZM40.9462 83.6016V54.7861L45.1006 51.5796L49.2686 54.7876V83.6016H40.9462ZM50.7682 27.8453C50.7682 23.5388 52.6319 19.4445 55.8813 16.6121C56.3469 16.2061 56.5555 15.5795 56.4262 14.9754C56.2874 14.327 56.2171 13.658 56.2171 12.9875C56.2171 7.7787 60.4546 3.54102 65.663 3.54102C70.8713 3.54102 75.1088 7.77853 75.1088 12.9875C75.1088 13.658 75.0385 14.327 74.8996 14.9754C74.7703 15.5795 74.979 16.2061 75.4447 16.6121C78.694 19.4445 80.5577 23.5389 80.5577 27.8453C80.5577 35.4841 74.7781 41.7984 67.3624 42.6443V34.0826C67.3707 34.0753 67.3791 34.0678 67.3872 34.0602L73.8614 28.0956C74.5518 27.4597 74.5956 26.3848 73.9598 25.6946C73.3239 25.0042 72.249 24.9602 71.5588 25.5962L67.3624 29.4623V25.0317L71.9357 20.791C72.6239 20.1527 72.6643 19.0777 72.0263 18.3895C71.3879 17.7013 70.3128 17.6614 69.6247 18.2989L67.3624 20.3968V16.5754C67.3624 15.6371 66.6015 14.8762 65.6632 14.8762C64.7249 14.8762 63.964 15.6371 63.964 16.5754V29.4626L59.7674 25.5964C59.077 24.9603 58.0021 25.0047 57.3664 25.6947C56.7306 26.385 56.7746 27.4599 57.4648 28.0957L63.939 34.0603C63.9473 34.068 63.9556 34.0755 63.964 34.0829V42.6445C56.5479 41.7984 50.7682 35.4841 50.7682 27.8453ZM66.9196 58.7649C67.596 59.409 68.506 60.3626 69.3544 61.5337C68.4628 61.7867 67.613 62.1772 66.9184 62.7797C66.2239 62.1775 65.3745 61.7872 64.4832 61.5342C65.3312 60.3665 66.2426 59.4108 66.9196 58.7649ZM64.3553 56.514V46.0929C64.7872 46.1234 65.2233 46.1391 65.6628 46.1391C66.1019 46.1391 66.5374 46.1234 66.9689 46.0929V54.8032C66.5845 54.7917 66.1969 54.9103 65.8761 55.159C65.8159 55.2058 65.2012 55.6873 64.3553 56.514ZM52.6672 54.7845L56.8053 51.5817L60.957 54.7859V60.6868C60.8777 60.8139 60.7995 60.9425 60.7224 61.0728C60.406 61.0677 60.1096 61.0677 59.8408 61.0677C59.3898 61.0677 58.9574 61.247 58.6386 61.5661C58.32 61.8852 58.1411 62.3178 58.1416 62.7688L58.1467 67.4503C55.9931 67.1919 53.976 67.3122 52.6672 67.4575V54.7845ZM64.9485 83.3608C64.3252 83.4351 63.5827 83.4921 62.7789 83.5059C62.7383 83.503 62.6974 83.5015 62.6561 83.5015C62.6026 83.5015 62.5495 83.504 62.497 83.509C59.8286 83.5197 56.5764 83.034 54.7472 81.1279C52.3031 78.5814 52.5049 73.5585 52.9376 70.8399C55.6685 70.5149 60.6845 70.5157 63.1388 73.0732C65.583 75.6195 65.3811 80.6422 64.9485 83.3608ZM66.9181 72.4991C66.5524 71.8641 66.1142 71.2649 65.5906 70.7196C64.4499 69.5312 63.0372 68.7358 61.5458 68.2136L61.5417 64.512C64.9225 64.7175 65.2049 65.6055 65.2178 66.9559C65.227 67.8877 65.9876 68.6386 66.9198 68.6386C67.852 68.6386 68.6098 67.8879 68.619 66.9559C68.6319 65.6053 68.9145 64.7173 72.2961 64.512V68.2118C70.8025 68.7339 69.3875 69.5298 68.2455 70.7196C67.7221 71.2649 67.2837 71.8642 66.9181 72.4991ZM79.0887 81.1275C76.6446 83.6745 71.6181 83.6784 68.8846 83.3579C68.7386 82.4505 68.6185 81.2867 68.6149 80.0438C68.6151 79.9963 68.6151 79.9488 68.6149 79.901C68.6254 77.4604 69.0941 74.7434 70.6973 73.0731C73.1413 70.5264 78.1672 70.5217 80.9014 70.8427C81.3383 73.558 81.5436 78.5699 79.0887 81.1275Z" fill="#A4804D"/>
</g>
<defs>
<clipPath id="fences-svg">
<rect width="87" height="87" fill="white"/>
</clipPath>
</defs>
</svg>
