<svg width="87" height="87" viewBox="0 0 87 87" fill="none" xmlns="http://www.w3.org/2000/svg">
<path d="M85.3008 75.1833H84.1764C82.9314 72.124 80.4103 69.7475 77.3145 68.6853C78.3384 64.4024 77.6686 60.2086 77.6249 59.9462C77.5056 59.2316 76.9462 58.671 76.2317 58.5503C75.8377 58.4841 66.5227 56.9792 61.4524 62.0803C61.0956 62.4392 60.7714 62.8193 60.4771 63.216C58.6394 62.8801 56.7257 62.9161 54.9091 63.3258C52.2963 60.6883 48.866 59.0409 45.1992 58.6497V50.7808C45.1992 47.1649 46.321 43.6937 48.2498 40.6572C48.2819 40.6662 48.3142 40.6742 48.347 40.6814C48.6614 40.7495 52.2217 41.4971 56.7882 41.4971C62.224 41.4971 69.0846 40.437 73.5847 35.9096C81.8582 27.5855 78.472 11.2312 78.3238 10.5389C78.1839 9.88607 77.6747 9.37545 77.0222 9.23408C76.334 9.08506 60.0652 5.67507 51.7847 14.006C45.2694 20.5611 45.9846 32.0955 46.6553 37.0404C45.3476 38.7244 44.2901 40.5262 43.5002 42.4096C42.71 40.5262 41.6526 38.7242 40.3451 37.0404C41.0157 32.0955 41.7309 20.5611 35.2156 14.006C26.935 5.67524 10.6663 9.08506 9.97781 9.23425C9.32531 9.37562 8.81606 9.88624 8.67621 10.5391C8.52804 11.2312 5.14184 27.5855 13.4153 35.9098C17.9159 40.4377 24.7756 41.4973 30.2118 41.4973C34.7774 41.4973 38.3386 40.7497 38.653 40.6815C38.6858 40.6744 38.7182 40.6664 38.7502 40.6574C40.679 43.6941 41.8008 47.1652 41.8008 50.7812V58.6501C38.134 59.0412 34.7037 60.6886 32.0909 63.3262C30.579 62.9853 28.9936 62.9022 27.4459 63.0786C27.1797 62.7316 26.8898 62.3979 26.5746 62.0806C21.5045 56.9794 12.1893 58.4841 11.7953 58.5507C11.0808 58.6713 10.5214 59.2319 10.4021 59.9466C10.3593 60.203 9.71766 64.2203 10.6475 68.4034C7.12907 69.2685 4.20132 71.79 2.82291 75.1836H1.69922C0.76074 75.1836 0 75.9444 0 76.8829C0 77.8214 0.76074 78.5821 1.69922 78.5821H85.3008C86.2393 78.5821 87 77.8214 87 76.8829C87 75.9444 86.2393 75.1833 85.3008 75.1833ZM54.1951 16.4017C60.0523 10.5088 71.5862 11.7844 75.1959 12.3583C75.7668 15.988 77.0402 27.6123 71.1743 33.514C65.5207 39.2024 54.5782 38.2115 50.5781 37.6195C54.7952 32.9999 61.0599 29.9589 67.7864 29.9589C68.7249 29.9589 69.4856 29.1982 69.4856 28.2597C69.4856 27.3212 68.7249 26.5605 67.7864 26.5605C65.7771 26.5605 63.7572 26.8115 61.7782 27.2932C62.3156 24.6462 61.4789 21.7724 59.2879 19.568C58.6261 18.9021 57.5503 18.8992 56.8849 19.5607C56.2193 20.2224 56.2159 21.2982 56.8776 21.9638C58.874 23.9724 59.0506 26.8584 57.3383 28.7916C54.6348 29.9698 52.0952 31.59 49.8702 33.5934C49.8272 33.6321 49.7844 33.6711 49.7416 33.71C49.3963 28.6385 49.7392 20.8848 54.1951 16.4017ZM15.8258 33.514C9.95861 27.611 11.2339 15.9832 11.8043 12.3569C15.4124 11.779 26.9335 10.4946 32.8049 16.4019C37.2496 20.8737 37.5956 28.6308 37.2538 33.7059C37.2127 33.6683 37.1713 33.631 37.1298 33.5936C34.9048 31.5902 32.3652 29.97 29.6617 28.7917C27.9493 26.8591 28.126 23.9728 30.1226 21.9639C30.7841 21.2984 30.7808 20.2224 30.1153 19.5609C29.4498 18.8994 28.3739 18.9026 27.7122 19.5682C25.5211 21.7728 24.6844 24.6463 25.2218 27.2934C23.2428 26.8118 21.2231 26.5608 19.2139 26.5608C18.2754 26.5608 17.5147 27.3216 17.5147 28.2601C17.5147 29.1985 18.2754 29.9593 19.2139 29.9593C25.9413 29.9593 32.2067 33.0009 36.4238 37.6214C32.4267 38.2173 21.4939 39.2166 15.8258 33.514ZM74.4095 61.7636C74.5948 64.1781 74.6183 69.4743 71.7097 72.4005C68.809 75.3189 63.5613 75.2987 61.1634 75.1131C60.978 72.6985 60.9545 67.4026 63.8629 64.4762C66.7637 61.5578 72.011 61.5783 74.4095 61.7636ZM32.1372 66.8536C32.7815 67.0539 33.4834 66.8536 33.9254 66.3436C35.964 63.9909 38.7687 62.4852 41.8008 62.073V68.0097C41.8008 68.9482 42.5615 69.7089 43.5 69.7089C44.4385 69.7089 45.1992 68.9482 45.1992 68.0097V62.073C48.2315 62.4852 51.036 63.9909 53.0746 66.3436C53.4027 66.7224 53.8741 66.9302 54.359 66.9302C54.5271 66.9302 54.697 66.9052 54.8628 66.8536C55.8627 66.5429 56.9058 66.3856 57.9632 66.3856C58.2387 66.3856 58.5136 66.3965 58.787 66.4177C57.6127 69.6522 57.6142 73.1451 57.7573 75.1833H30.2701C30.4136 73.1386 30.4147 69.6303 29.2291 66.3873C30.2206 66.4053 31.198 66.562 32.1372 66.8536ZM13.6177 61.7637C16.018 61.5785 21.2642 61.5585 24.1642 64.4762C27.0731 67.4029 27.0494 72.6999 26.864 75.113C24.4638 75.2983 19.2175 75.3182 16.3174 72.4005C13.4084 69.4738 13.4323 64.1768 13.6177 61.7637ZM6.63018 75.1833C7.77783 73.3748 9.6152 72.0822 11.7317 71.6413C12.2689 72.782 12.9774 73.861 13.9069 74.7962C14.0396 74.9298 14.1754 75.0588 14.3137 75.1833H6.63018ZM73.7133 75.1833C73.8516 75.0586 73.9874 74.9296 74.1203 74.7961C74.9826 73.9284 75.6548 72.9369 76.1763 71.8873C77.9104 72.472 79.3907 73.6457 80.3681 75.1833H73.7133Z" fill="#A4804D"/>
</svg>
