<svg width="87" height="87" viewBox="0 0 87 87" fill="none" xmlns="http://www.w3.org/2000/svg">
<g clip-path="url(#clip0_90_1062)">
<path d="M81.8884 25.5885C79.0699 25.5885 76.777 27.8816 76.777 30.7001V32.4131C74.9221 32.3023 70.6387 32.5859 66.5166 28.6221C63.3379 25.5656 59.1586 23.8821 54.7488 23.8821H51.7361C50.5341 20.4616 46.2094 19.3435 43.5 21.7721C40.792 19.3447 36.4668 20.4592 35.2637 23.8821H32.2512C27.8414 23.8821 23.6621 25.5654 20.4836 28.6221C15.9371 32.9934 10.5637 32.3543 10.223 32.4131V30.7001C10.223 27.8816 7.93008 25.5885 5.11159 25.5885C2.2931 25.5885 0 27.8816 0 30.7001V85.297C0 86.2355 0.76074 86.9962 1.69922 86.9962H8.52379C9.4621 86.9962 10.223 86.2355 10.223 85.297V83.5839H34.9762V85.297C34.9762 86.2355 35.7371 86.9962 36.6754 86.9962H50.3246C51.2629 86.9962 52.0238 86.2355 52.0238 85.297V83.5839H76.777V85.297C76.777 86.2355 77.5379 86.9962 78.4762 86.9962H85.3008C86.2391 86.9962 87 86.2355 87 85.297V30.7001C87 27.8816 84.7069 25.5885 81.8884 25.5885ZM66.1849 73.3609V57.9916H69.611V73.3609H66.1849ZM59.3603 73.3609V57.9916H62.7865V73.3609H59.3603ZM52.0238 73.3609V57.9916H55.9619V73.3609H52.0238ZM62.7865 47.7684H59.3603V28.0855C60.5794 28.5251 61.7319 29.1399 62.7865 29.9166V47.7684ZM76.777 51.1668V54.593H52.0238V51.1668H76.777ZM73.0095 57.9914H76.777V73.3607H73.0095V57.9914ZM76.777 35.8115V47.7684H73.0095V35.561C74.9058 35.8892 76.2326 35.795 76.777 35.8115ZM69.611 34.5986V47.7684H66.1849V32.7388C67.257 33.4924 68.4058 34.1157 69.611 34.5986ZM55.9619 27.3362V47.7684H52.0238V27.2808C54.547 27.295 54.9415 27.2459 55.9619 27.3362ZM24.2135 73.3609V57.9916H27.6397V73.3609H24.2135ZM17.389 73.3609V57.9916H20.8151V73.3609H17.389ZM10.223 73.3609V57.9916H13.9905V73.3609H10.223ZM34.9762 51.1668V54.593H10.223V51.1668H34.9762ZM24.2135 29.9168C25.2681 29.1399 26.4208 28.5251 27.6397 28.0855V47.7684H24.2135V29.9168ZM31.0381 57.9914H34.9762V73.3607H31.0381V57.9914ZM34.9762 27.2808V47.7684H31.0381V27.3362C32.0583 27.2459 32.4605 27.295 34.9762 27.2808ZM20.8151 32.739V47.7686H17.389V34.5988C18.5942 34.1157 19.7431 33.4924 20.8151 32.739ZM13.9905 35.561V47.7684H10.223V35.8115C10.7688 35.795 12.0962 35.8888 13.9905 35.561ZM6.82457 83.5978H3.39844V30.7001C3.39844 29.7555 4.16682 28.9869 5.11159 28.9869C6.05619 28.9869 6.82457 29.7555 6.82457 30.7001V83.5978ZM10.223 80.1854V76.7593H34.9762V80.1854H10.223ZM38.3746 25.5678C38.3746 24.6308 39.1369 23.8686 40.0739 23.8686H40.1016C41.0385 23.8686 41.8008 24.6308 41.8008 25.5678V83.5978H38.3746C38.3746 76.5275 38.3746 32.6323 38.3746 25.5678ZM48.6254 83.5978H45.1992V25.5678C45.1992 24.6308 45.9615 23.8686 46.8984 23.8686H46.9261C47.8631 23.8686 48.6254 24.6308 48.6254 25.5678V83.5978ZM52.0238 80.1854V76.7593H76.777V80.1854H52.0238ZM83.6016 83.5978H80.1754C80.1754 48.6547 80.1754 65.3883 80.1754 30.7001C80.1754 29.7555 80.9438 28.9869 81.8884 28.9869C82.8332 28.9869 83.6016 29.7555 83.6016 30.7001V83.5978Z" fill="#A4804D"/>
<path d="M35.0106 6.91117C39.6914 2.23033 47.3083 2.23033 51.9892 6.91117C52.653 7.57471 53.7285 7.57471 54.3924 6.91117C55.0559 6.24762 55.0559 5.17168 54.3924 4.50796C48.386 -1.4981 38.6139 -1.4981 32.6075 4.50796C31.944 5.17151 31.944 6.24745 32.6075 6.91117C33.2712 7.57454 34.3468 7.57488 35.0106 6.91117Z" fill="#A4804D"/>
<path d="M49.5472 11.7287C50.2108 11.0651 50.2108 9.98933 49.5472 9.32545C47.9321 7.71017 45.7845 6.8208 43.5002 6.8208C41.2161 6.8208 39.0685 7.71017 37.4532 9.32545C36.7897 9.98899 36.7897 11.0649 37.4532 11.7287C38.1169 12.392 39.1925 12.392 39.8564 11.7287C40.8297 10.7553 42.1239 10.2192 43.5002 10.2192C44.8768 10.2192 46.1709 10.7552 47.144 11.7287C47.8081 12.3922 48.8835 12.392 49.5472 11.7287Z" fill="#A4804D"/>
<path d="M42.2987 14.1439C41.9826 14.4599 41.8008 14.8966 41.8008 15.3452C41.8008 15.7921 41.9824 16.2288 42.2987 16.5464C42.6147 16.8624 43.0531 17.0444 43.5 17.0444C43.9469 17.0444 44.3853 16.8626 44.7012 16.5464C45.0172 16.2288 45.1992 15.7921 45.1992 15.3452C45.1992 14.8965 45.0174 14.4599 44.7012 14.1439C44.3853 13.8261 43.9469 13.646 43.5 13.646C43.0531 13.646 42.6147 13.8259 42.2987 14.1439Z" fill="#A4804D"/>
</g>
<defs>
<clipPath id="clip0_90_1062">
<rect width="87" height="87" fill="white"/>
</clipPath>
</defs>
</svg>
