<svg width="50" height="50" viewBox="0 0 50 50" fill="none" xmlns="http://www.w3.org/2000/svg">
<path d="M46.5721 29.0428C48.4622 29.0428 50 27.505 50 25.6149C50 23.7248 48.4623 22.187 46.5721 22.187H43.3741C46.075 18.319 48.228 12.9774 48.2798 8.33679C48.366 0.627313 42.3425 -1.28392 36.1854 5.5363C35.685 5.20378 35.1259 4.96423 34.5378 4.83278C33.674 3.60192 32.2972 2.83923 30.7915 2.761C29.3096 1.49763 27.2543 1.23513 25.5104 2.07243C23.8998 1.30837 21.9771 1.48161 20.5308 2.52819C17.3913 2.08337 14.6415 4.70778 14.9684 7.87262C13.9036 8.74362 13.2413 10.0449 13.1667 11.4193C12.7523 11.7143 12.3876 12.0736 12.0832 12.4829C11.0745 12.5359 10.1212 12.8641 9.29287 13.4668C8.92793 11.5166 7.84707 10.3498 6.06445 9.99235C5.53564 9.88639 5.021 10.2291 4.91494 10.7579C4.80889 11.2867 5.15166 11.8014 5.68047 11.9074C6.57295 12.0863 7.40088 12.5672 7.47383 14.7771C4.53643 15.6736 3.07432 18.8967 3.9876 22.187H3.42793C1.5377 22.187 0 23.7247 0 25.6148C0 27.5049 1.5377 29.0427 3.42793 29.0427H4.05781L6.87461 47.822C6.94629 48.3002 7.35693 48.6538 7.84043 48.6538H42.1598C42.6431 48.6538 43.0537 48.3002 43.1256 47.8221L43.4128 45.9083C44.4511 46.0432 45.5119 45.706 46.2822 44.9357C47.6181 43.5998 47.6183 41.4251 46.2822 40.0875L44.5459 38.3511L45.9424 29.0427L46.5721 29.0428ZM44.4815 3.53239C45.6816 4.11999 46.3542 5.86305 46.3268 8.31491C46.2751 12.9324 43.876 18.472 40.9394 22.187H32.7179C32.9067 21.1453 32.7046 20.0594 32.125 19.1413C31.7082 18.4816 31.6492 17.6633 31.9677 16.9516L32.1165 16.6182C33.3475 16.7168 34.5246 16.0347 35.0364 14.8878C35.5695 13.6926 35.2355 12.3615 34.3608 11.5448C35.7971 8.88893 37.0256 7.57526 37.124 7.42077C39.8792 4.12116 42.7966 2.7069 44.4815 3.53239ZM19.9691 22.187C19.9742 22.1757 20.3007 21.4437 21.6692 18.376L21.6693 18.3759C21.9375 17.7324 22.5879 17.1699 23.4043 17.03C24.8181 16.7894 26.0109 15.8643 26.5955 14.555L26.676 14.3747L30.2646 15.9757L30.1847 16.1549C29.5988 17.4642 29.707 18.9708 30.4738 20.1843C30.854 20.7866 30.9351 21.5217 30.7044 22.1871L19.9691 22.187ZM32.7549 12.792C33.2525 13.014 33.474 13.5962 33.2528 14.0921C33.0315 14.5879 32.4484 14.8109 31.9526 14.5901C31.9525 14.5901 31.9525 14.5901 31.9525 14.5901C25.1879 11.5716 26.8451 12.3102 26.5798 12.1926C26.324 12.0761 26.151 11.8798 26.0614 11.646C25.7459 10.8227 26.5895 10.0411 27.3819 10.3947L32.7549 12.792ZM14.6092 12.8177C14.9484 12.6352 15.1485 12.2703 15.1202 11.8861C15.0396 10.7909 15.596 9.71677 16.5378 9.14968C16.9044 8.92888 17.0846 8.49528 16.9822 8.07975C16.4629 5.96921 18.3858 3.97897 20.5532 4.51979C20.8674 4.59782 21.1998 4.51559 21.441 4.29968C22.4192 3.42399 23.8776 3.30505 24.988 4.01091C25.3076 4.21423 25.7162 4.21413 26.0358 4.011C27.215 3.2613 28.7269 3.43014 29.7122 4.42145C29.9033 4.61364 30.1658 4.7153 30.4364 4.70905C31.5364 4.67487 32.5544 5.24509 33.0944 6.20095C33.2472 6.47126 33.5193 6.6527 33.8274 6.69001C34.2167 6.73708 34.5904 6.86452 34.9282 7.05681C34.1096 8.13513 33.3419 9.32858 32.6488 10.6058L28.1777 8.611C26.6951 7.94968 24.9598 8.61393 24.2979 10.0969C23.772 11.2759 24.0877 12.6026 24.9597 13.4274L24.8117 13.7591C24.4939 14.4707 23.8453 14.9737 23.0753 15.1047C21.5691 15.3629 20.3479 16.4224 19.8794 17.5936C19.8558 17.6466 19.75 17.8838 19.3555 18.7684C18.6742 15.8419 16.81 13.732 14.5115 12.8747C14.544 12.8556 14.5759 12.8356 14.6092 12.8177ZM8.78574 16.5078C9.10566 16.4846 9.39375 16.3058 9.55654 16.0295C11.0193 13.5458 14.7102 14.0299 16.5601 17.0133C17.5161 18.5551 17.8779 20.6042 17.512 22.187H6.0415C4.99131 19.4465 6.23711 16.6927 8.78574 16.5078ZM1.95312 25.6148C1.95312 24.8016 2.61465 24.14 3.42793 24.14H46.5722C47.3853 24.14 48.047 24.8015 48.047 25.6148C48.047 26.428 47.3854 27.0896 46.5722 27.0896H3.42793C2.61465 27.0897 1.95312 26.428 1.95312 25.6148ZM41.3187 46.7007H8.68135L6.03281 29.0428H25.5407L27.7531 31.2552C26.7135 31.7081 25.9846 32.7452 25.9846 33.9497V41.794C25.9846 43.4138 27.3023 44.7317 28.9222 44.7317C30.542 44.7317 31.8599 43.4138 31.8599 41.794V35.362L33.8289 37.331V41.794C33.8289 43.4138 35.1468 44.7317 36.7666 44.7317C37.9711 44.7317 39.0081 44.0027 39.4609 42.9631C41.533 45.0326 41.4408 44.9484 41.5649 45.0601L41.3187 46.7007ZM29.9067 33.9496V41.7939C29.9067 42.3369 29.4651 42.7785 28.9222 42.7785C28.3793 42.7785 27.9377 42.3369 27.9377 41.7939V33.9496C27.9377 33.4066 28.3793 32.965 28.9222 32.965C29.4651 32.965 29.9067 33.4066 29.9067 33.9496ZM35.782 39.2841L37.7511 41.2531V41.7939C37.7511 42.3369 37.3095 42.7785 36.7666 42.7785C36.2236 42.7785 35.782 42.3369 35.782 41.7939V39.2841ZM44.901 43.5548C44.3261 44.1297 43.3901 44.1296 42.8149 43.5547L28.3029 29.0428H32.4751L44.9006 41.4681C45.4757 42.0439 45.4758 42.9799 44.901 43.5548ZM42.8284 36.6339L35.2373 29.0428H43.9672L42.8284 36.6339Z" fill="white"/>
<path d="M39.4559 10.1868L42.0978 11.4805C42.5812 11.7172 43.1667 11.5183 43.4043 11.033C43.6417 10.5487 43.4413 9.96371 42.9569 9.72651L40.315 8.43276C39.8302 8.19545 39.2457 8.39613 39.0084 8.88022C38.7712 9.36459 38.9715 9.94955 39.4559 10.1868Z" fill="white"/>
<path d="M37.7309 13.7092L40.3727 15.0029C40.8561 15.2396 41.4416 15.0407 41.6793 14.5555C41.9166 14.0711 41.7162 13.4861 41.2318 13.2489L38.5899 11.9552C38.1051 11.718 37.5205 11.9186 37.2834 12.4026C37.0461 12.887 37.2465 13.472 37.7309 13.7092Z" fill="white"/>
<path d="M13.2335 31.0117C11.6137 31.0117 10.2959 32.3296 10.2959 33.9494V41.7937C10.2959 43.4136 11.6137 44.7314 13.2335 44.7314C14.8533 44.7314 16.1712 43.4136 16.1712 41.7937V33.9494C16.1712 32.3296 14.8533 31.0117 13.2335 31.0117ZM14.2181 41.7937C14.2181 42.3367 13.7765 42.7783 13.2335 42.7783C12.6906 42.7783 12.249 42.3367 12.249 41.7937V33.9494C12.249 33.4064 12.6906 32.9648 13.2335 32.9648C13.7765 32.9648 14.2181 33.4064 14.2181 33.9494V41.7937Z" fill="white"/>
<path d="M21.0777 31.0117C19.4579 31.0117 18.1401 32.3296 18.1401 33.9494V41.7937C18.1401 43.4136 19.4579 44.7314 21.0777 44.7314C22.6976 44.7314 24.0153 43.4136 24.0153 41.7937V33.9494C24.0153 32.3296 22.6976 31.0117 21.0777 31.0117ZM22.0622 41.7937C22.0622 42.3367 21.6205 42.7783 21.0777 42.7783C20.535 42.7783 20.0933 42.3367 20.0933 41.7937V33.9494C20.0933 33.4064 20.5349 32.9648 21.0777 32.9648C21.6206 32.9648 22.0622 33.4064 22.0622 33.9494V41.7937Z" fill="white"/>
</svg>
