<svg width="50" height="50" viewBox="0 0 50 50" fill="none" xmlns="http://www.w3.org/2000/svg">
<path d="M41.0977 13.1091C42.1387 9.88146 42.9379 3.41669 42.3572 0.769965C42.2589 0.321944 41.8621 0.00282138 41.4034 0.00282138C38.6685 0.00291903 35.6838 2.02605 33.6532 4.0316C33.2096 3.22666 32.6702 2.49487 32.0335 1.89246C30.7982 0.723386 28.6544 -0.482991 25.4041 0.299387C22.8106 -0.336515 20.5834 0.0414911 18.7806 1.42471C17.8182 2.16325 17.0717 3.12862 16.4991 4.18384C14.4675 2.12975 11.4008 0.00282138 8.59673 0.00282138C8.13816 0.00282138 7.74121 0.322042 7.64288 0.769965C7.06205 3.41679 7.86142 9.88195 8.90247 13.1095C8.83441 13.3051 8.76928 13.5029 8.70717 13.7031C7.57989 17.3337 7.51544 21.5883 8.53033 25.3761C8.72856 26.1162 8.86585 27.0845 9.01106 28.1097C9.23673 29.702 9.46992 31.3484 9.99333 32.4226C10.6076 33.6832 11.3231 34.5505 11.9544 35.3158C12.7659 36.2992 13.312 36.9613 13.3508 38.0611C12.9124 39.2756 13.2447 40.3494 13.51 41.2064C13.7392 41.947 13.9372 42.5866 13.7467 43.2973L13.7207 43.3942C13.4121 44.5421 12.9895 46.1142 14.0282 47.469C15.3702 49.2194 18.7541 49.9999 24.9999 49.9999C31.2459 49.9999 34.6297 49.2194 35.9717 47.469C37.0105 46.1142 36.5879 44.5421 36.2792 43.3942L36.2532 43.2973C36.0628 42.5866 36.2607 41.947 36.4899 41.2064C36.7552 40.3494 37.0875 39.2756 36.6491 38.0611C36.6879 36.9613 37.2341 36.2992 38.0455 35.3158C38.6768 34.5505 39.3923 33.6832 40.0065 32.4226C40.5299 31.3485 40.7632 29.7022 40.9887 28.1101C41.134 27.0848 41.2712 26.1163 41.4696 25.3761C42.4685 21.6475 42.4213 17.4486 41.3398 13.856C41.2639 13.6035 41.1832 13.3545 41.0977 13.1091ZM39.8132 10.2714C38.6458 8.23028 37.0791 6.5461 35.1635 5.28104C36.9236 3.56639 38.9267 2.36734 40.5648 2.04362C40.7161 4.03814 40.3832 7.51411 39.8132 10.2714ZM19.9695 2.97414C21.3233 1.93552 23.0662 1.69208 25.1503 2.25035C25.3158 2.29478 25.4901 2.29478 25.6557 2.25035C27.6803 1.7079 29.3743 2.06491 30.6912 3.31103C32.3469 4.87764 33.1154 7.55601 33.2307 9.68372C32.114 8.88025 30.763 8.38799 29.1917 8.21476C28.8434 8.17599 28.5019 8.32696 28.2955 8.61005C26.6895 10.8126 25.5034 13.7676 24.8758 16.1639C22.8984 13.9284 21.8569 11.1436 21.6951 9.12115C21.6743 8.86091 21.5502 8.61981 21.3503 8.45176C21.1736 8.30323 20.9508 8.22257 20.7217 8.22257C20.6917 8.22257 20.6618 8.22394 20.6317 8.22677C19.416 8.33926 18.1308 8.7285 16.8895 9.34966C17.194 7.22585 18.0491 4.44778 19.9695 2.97414ZM9.43526 2.04353C11.0735 2.36734 13.0767 3.56649 14.8369 5.28123C12.9212 6.5461 11.3547 8.22911 10.1869 10.2714C9.61689 7.51421 9.284 4.03824 9.43526 2.04353ZM34.367 43.8029L34.3934 43.9013C34.6926 45.0146 34.844 45.7304 34.422 46.2808C33.8043 47.0865 31.6682 48.047 25.0001 48.047C18.3321 48.047 16.196 47.0865 15.5783 46.2808C15.1563 45.7304 15.3077 45.0146 15.6069 43.9013L15.6333 43.8029C15.9697 42.5478 15.6404 41.484 15.3758 40.6291C15.0081 39.4409 14.8056 38.7864 15.9134 37.6785C16.4888 37.1031 17.0639 36.8818 17.7861 36.8818C18.484 36.8818 19.3194 37.0887 20.4247 37.3828C21.7503 37.7356 23.2529 38.1355 25.0002 38.1355C26.7477 38.1355 28.2501 37.7356 29.5758 37.3828C31.8243 36.7844 32.9554 36.5469 34.087 37.6785C35.1948 38.7864 34.9923 39.4409 34.6246 40.6291C34.3599 41.484 34.0306 42.5478 34.367 43.8029ZM39.5834 24.8707C39.3544 25.7252 39.2023 26.7984 39.0554 27.8362C38.851 29.2785 38.6397 30.7698 38.2511 31.5672C37.7385 32.6193 37.1289 33.3583 36.5393 34.0729C36.0244 34.6969 35.5251 35.3022 35.176 36.0256C34.4847 35.4279 33.7635 35.1217 33.0264 35.0006C32.8997 34.4535 32.7664 33.8859 32.63 33.3058C31.8135 29.8302 30.8879 25.8909 30.6958 23.3788C30.6548 22.8411 30.1836 22.437 29.6478 22.4796C29.11 22.5207 28.7074 22.99 28.7485 23.5276C28.952 26.1905 29.896 30.2079 30.7288 33.7525C30.8317 34.1904 30.9329 34.6213 31.0308 35.0415C30.3778 35.1484 29.7224 35.3229 29.0735 35.4955C27.8044 35.8333 26.492 36.1825 25.0001 36.1825C23.5082 36.1825 22.1959 35.8333 20.9268 35.4955C20.2779 35.3228 19.6224 35.1484 18.9695 35.0415C19.0674 34.6213 19.1686 34.1904 19.2715 33.7525C20.1043 30.2079 21.0483 26.1905 21.2518 23.5276C21.2929 22.9899 20.8903 22.5206 20.3525 22.4796C19.8164 22.4368 19.3455 22.8411 19.3045 23.3788C19.1124 25.891 18.1869 29.8302 17.3703 33.3058C17.2339 33.8859 17.1005 34.4535 16.9738 35.0006C16.2367 35.1218 15.5155 35.4279 14.8242 36.0256C14.4751 35.3023 13.9757 34.6969 13.4609 34.0729C12.8713 33.3583 12.2617 32.6193 11.749 31.5671C11.3604 30.7697 11.1491 29.2783 10.9448 27.8358C10.791 26.7504 10.6458 25.7252 10.4168 24.8707C8.79496 18.8176 10.0611 11.3187 15.2923 7.35592C14.9306 8.79451 14.7965 10.1615 14.7965 11.1517C14.7965 11.5159 14.9993 11.85 15.3225 12.0181C15.6458 12.1862 16.0357 12.1603 16.3339 11.951C17.4756 11.1497 18.7083 10.587 19.8871 10.3203C20.3525 12.8788 21.8394 16.3063 24.8255 18.8457C25.0951 19.0754 25.4685 19.1395 25.7969 19.0177C26.1281 18.8951 26.3672 18.6035 26.4226 18.2548C26.7674 16.0808 27.8787 12.7341 29.5419 10.2368C31.1609 10.5246 32.3908 11.2538 33.2903 12.4556C33.5201 12.7629 33.909 12.9069 34.2832 12.8239C34.6578 12.7409 34.949 12.4463 35.0278 12.0707C35.2977 10.7827 35.2647 9.15455 34.9214 7.52075C39.9712 11.528 41.1724 18.9396 39.5834 24.8707Z" fill="white"/>
<path d="M20.9576 39.8795C20.6879 39.4125 20.0906 39.2525 19.6237 39.5221C19.1566 39.7918 18.9966 40.3889 19.2663 40.856L19.7545 41.7016C19.9355 42.0149 20.2636 42.1901 20.6012 42.1901C20.7668 42.1901 20.9347 42.1478 21.0884 42.059C21.5555 41.7893 21.7156 41.1922 21.4458 40.7251L20.9576 39.8795Z" fill="white"/>
<path d="M30.3765 39.5221C29.9093 39.2525 29.3121 39.4124 29.0426 39.8795L28.5544 40.7252C28.2847 41.1922 28.4447 41.7893 28.9118 42.0591C29.0656 42.1478 29.2334 42.1901 29.399 42.1901C29.7365 42.1901 30.0648 42.0149 30.2457 41.7017L30.7339 40.856C31.0035 40.3889 30.8436 39.7917 30.3765 39.5221Z" fill="white"/>
<path d="M16.2114 24.2954C15.6721 24.2954 15.2349 24.7327 15.2349 25.2719V26.2484C15.2349 26.7877 15.6721 27.2249 16.2114 27.2249C16.7506 27.2249 17.1879 26.7877 17.1879 26.2484V25.2719C17.1879 24.7327 16.7506 24.2954 16.2114 24.2954Z" fill="white"/>
<path d="M33.7885 24.2954C33.2493 24.2954 32.812 24.7327 32.812 25.2719V26.2484C32.812 26.7877 33.2493 27.2249 33.7885 27.2249C34.3277 27.2249 34.765 26.7877 34.765 26.2484V25.2719C34.765 24.7327 34.3277 24.2954 33.7885 24.2954Z" fill="white"/>
</svg>
