<svg width="50" height="50" viewBox="0 0 50 50" fill="none" xmlns="http://www.w3.org/2000/svg">
<path d="M44.6265 10.3656H43.244V10.2586C43.244 9.71934 42.8067 9.28203 42.2675 9.28203C41.7282 9.28203 41.2909 9.71934 41.2909 10.2586V10.3656H35.1341V6.76553C35.1341 4.17441 33.0342 2.06641 30.4531 2.06641H19.5469C16.9658 2.06641 14.866 4.17441 14.866 6.76553V10.3655H8.70918V10.2585C8.70918 9.71924 8.27197 9.28193 7.73262 9.28193C7.19326 9.28193 6.75605 9.71924 6.75605 10.2585V10.3655H5.37354C2.41055 10.3656 0 12.7762 0 15.7392V41.4767C0 44.4396 2.41055 46.8502 5.37354 46.8502H6.75605V46.9572C6.75605 47.4965 7.19326 47.9338 7.73262 47.9338C8.27197 47.9338 8.70918 47.4965 8.70918 46.9572V46.8502H41.2909V46.9572C41.2909 47.4965 41.7282 47.9338 42.2675 47.9338C42.8067 47.9338 43.244 47.4965 43.244 46.9572V46.8502H44.6265C47.5895 46.8502 50 44.4396 50 41.4767V15.7392C50 12.7762 47.5894 10.3656 44.6265 10.3656ZM16.8191 6.76553C16.8191 5.25137 18.0428 4.01953 19.5469 4.01953H30.4531C31.9572 4.01953 33.181 5.25137 33.181 6.76553V10.3655H30.7678V7.43076C30.7678 6.8915 30.3305 6.4542 29.7912 6.4542H20.2088C19.6694 6.4542 19.2322 6.8915 19.2322 7.43076V10.3656H16.8191V6.76553ZM21.1854 10.3656V8.40732H28.8146V10.3656H21.1854ZM5.37354 44.8971C3.4875 44.8971 1.95312 43.3627 1.95312 41.4767V15.7392C1.95312 13.8531 3.4875 12.3187 5.37354 12.3187H6.75605V44.8972H5.37354V44.8971ZM8.70918 44.8971V12.3187H41.2909V44.8972H8.70918V44.8971ZM48.0469 41.4767C48.0469 43.3627 46.5125 44.8971 44.6265 44.8971H43.244V12.3187H44.6265C46.5125 12.3187 48.0469 13.8531 48.0469 15.7392V41.4767Z" fill="white"/>
<path d="M25.0002 14.8589C17.4191 14.8589 11.2515 21.0266 11.2515 28.6076C11.2515 36.1888 17.4191 42.3564 25.0002 42.3564C32.5812 42.3564 38.7489 36.1888 38.7489 28.6076C38.7489 21.0266 32.5812 14.8589 25.0002 14.8589ZM25.0002 40.4033C18.4961 40.4033 13.2046 35.1117 13.2046 28.6076C13.2046 22.1035 18.4961 16.812 25.0002 16.812C31.5044 16.812 36.7958 22.1035 36.7958 28.6076C36.7958 35.1117 31.5044 40.4033 25.0002 40.4033Z" fill="white"/>
<path d="M30.705 25.5072H28.1011V22.9033C28.1011 22.3641 27.6638 21.9268 27.1245 21.9268H22.876C22.3366 21.9268 21.8994 22.3641 21.8994 22.9033V25.5072H19.2954C18.7561 25.5072 18.3188 25.9445 18.3188 26.4838V30.7323C18.3188 31.2716 18.7561 31.7089 19.2954 31.7089H21.8994V34.3128C21.8994 34.852 22.3366 35.2894 22.876 35.2894H27.1245C27.6638 35.2894 28.1011 34.852 28.1011 34.3128V31.7089H30.705C31.2442 31.7089 31.6815 31.2716 31.6815 30.7323V26.4838C31.6815 25.9445 31.2442 25.5072 30.705 25.5072ZM29.7284 29.7558H27.1245C26.5853 29.7558 26.1479 30.1931 26.1479 30.7323V33.3362H23.8525V30.7323C23.8525 30.1931 23.4153 29.7558 22.876 29.7558H20.272V27.4604H22.876C23.4153 27.4604 23.8525 27.023 23.8525 26.4838V23.8799H26.1479V26.4838C26.1479 27.023 26.5853 27.4604 27.1245 27.4604H29.7284V29.7558Z" fill="white"/>
</svg>
