<svg width="87" height="87" viewBox="0 0 87 87" fill="none" xmlns="http://www.w3.org/2000/svg">
<g clip-path="url(#clip0_90_1034)">
<path d="M73.3579 6.82471H66.5332C65.5949 6.82471 64.834 7.58545 64.834 8.52393V25.5854C64.834 26.5239 65.5949 27.2847 66.5332 27.2847C67.4715 27.2847 68.2324 26.5239 68.2324 25.5854V20.4601H73.3579C77.1171 20.4601 80.1756 17.4017 80.1756 13.6423C80.1756 9.88296 77.1171 6.82471 73.3579 6.82471ZM73.3579 17.0617H68.2324V10.2231H73.3579C75.2434 10.2231 76.7771 11.757 76.7771 13.6425C76.7771 15.5279 75.2434 17.0617 73.3579 17.0617Z" fill="#A4804D"/>
<path d="M11.9363 71.6446C9.1178 71.6446 6.82471 69.3515 6.82471 66.533C6.82471 63.7145 9.1178 61.4214 11.9363 61.4214C14.7548 61.4214 17.0477 63.7145 17.0477 66.533C17.0477 69.3515 14.7548 71.6446 11.9363 71.6446ZM11.9363 64.8198C10.9915 64.8198 10.2231 65.5882 10.2231 66.533C10.2231 67.4777 10.9915 68.2461 11.9363 68.2461C12.8809 68.2461 13.6493 67.4776 13.6493 66.533C13.6493 65.5884 12.8809 64.8198 11.9363 64.8198Z" fill="#A4804D"/>
<path d="M54.5901 71.6446C51.7716 71.6446 49.4785 69.3515 49.4785 66.533C49.4785 63.7145 51.7716 61.4214 54.5901 61.4214C57.4086 61.4214 59.7017 63.7145 59.7017 66.533C59.7017 69.3515 57.4086 71.6446 54.5901 71.6446ZM54.5901 64.8198C53.6453 64.8198 52.877 65.5882 52.877 66.533C52.877 67.4777 53.6453 68.2461 54.5901 68.2461C55.5349 68.2461 56.3033 67.4776 56.3033 66.533C56.3033 65.5884 55.5347 64.8198 54.5901 64.8198Z" fill="#A4804D"/>
<path d="M44.3534 64.8198H22.1733C21.235 64.8198 20.4741 64.0591 20.4741 63.1206C20.4741 62.1821 21.235 61.4214 22.1733 61.4214H44.3532C45.2915 61.4214 46.0525 62.1821 46.0525 63.1206C46.0525 64.0591 45.2917 64.8198 44.3534 64.8198Z" fill="#A4804D"/>
<path d="M44.3534 71.6445H22.1733C21.235 71.6445 20.4741 70.8838 20.4741 69.9453C20.4741 69.0068 21.235 68.2461 22.1733 68.2461H44.3532C45.2915 68.2461 46.0525 69.0068 46.0525 69.9453C46.0525 70.8838 45.2917 71.6445 44.3534 71.6445Z" fill="#A4804D"/>
<path d="M85.3008 34.1093C86.2391 34.1093 87 33.3485 87 32.41V1.69922C87 0.76074 86.2391 0 85.3008 0H59.7085C58.7702 0 58.0093 0.76074 58.0093 1.69922V32.41C58.0093 33.3485 58.7702 34.1093 59.7085 34.1093H70.8047V83.6016H61.4077V78.4692H64.8269C65.7652 78.4692 66.5261 77.7085 66.5261 76.77V61.3938C66.5261 58.2037 64.3165 55.5213 61.3477 54.7932L60.4879 52.1774H63.458C64.3963 52.1774 65.1572 51.4167 65.1572 50.4782C65.1572 49.5397 64.3963 48.779 63.458 48.779H59.3709L53.816 31.8787C53.5867 31.1813 52.9358 30.71 52.2017 30.71H14.3244C13.5904 30.71 12.9394 31.1813 12.7102 31.8787L7.15524 48.779H3.06862C2.13031 48.779 1.3694 49.5397 1.3694 50.4782C1.3694 51.4167 2.13031 52.1774 3.06862 52.1774H6.03817L5.17837 54.7932C2.20966 55.5213 0 58.2037 0 61.3938V76.77C0 77.7085 0.76091 78.4692 1.69922 78.4692H5.11856V83.6016H1.69922C0.76091 83.6016 0 84.3623 0 85.3008C0 86.2393 0.76091 87 1.69922 87H85.3008C86.2391 87 87 86.2393 87 85.3008C87 84.3623 86.2391 83.6016 85.3008 83.6016H74.203V34.1093H85.3008ZM58.0093 83.6016H52.877V78.4692H58.0093V83.6016ZM49.4785 78.4692V83.6016H17.0476V78.4692H49.4785ZM15.5546 34.1084H50.9716L57.7058 54.5969H52.3777C51.5764 50.2668 47.7742 46.9761 43.2156 46.9761C38.6569 46.9761 34.8549 50.2668 34.0534 54.5969H8.8203L15.5546 34.1084ZM48.8875 54.5969H37.5436C38.2758 52.1575 40.541 50.3745 43.2156 50.3745C45.8901 50.3745 48.1553 52.1575 48.8875 54.5969ZM3.39844 61.3938C3.39844 59.5199 4.92298 57.9954 6.79688 57.9954H59.7292C61.6031 57.9954 63.1277 59.5199 63.1277 61.3938V75.0708H3.39844V61.3938ZM8.51699 78.4692H13.6491V83.6016H8.51699V78.4692ZM61.4077 3.39844H83.6016V30.7108H72.5203C72.5147 30.7108 72.5094 30.71 72.5038 30.71C72.4982 30.71 72.4929 30.7108 72.4873 30.7108H61.4076V3.39844H61.4077Z" fill="#A4804D"/>
</g>
<defs>
<clipPath id="clip0_90_1034">
<rect width="87" height="87" fill="white"/>
</clipPath>
</defs>
</svg>
