<svg width="50" height="50" viewBox="0 0 50 50" fill="none" xmlns="http://www.w3.org/2000/svg">
<g clip-path="url(#clip0_90_1126)">
<path d="M49.0233 15.6889H23.5252V12.7393H24.5096C24.9124 12.7393 25.2738 12.4921 25.4197 12.1167C25.5657 11.7414 25.4664 11.315 25.1695 11.0429L13.4029 0.256787C13.0297 -0.0855955 12.4565 -0.0855955 12.0832 0.256787L0.316721 11.0429C0.0198463 11.315 -0.0795676 11.7414 0.0665259 12.1167C0.212424 12.4921 0.573849 12.7393 0.976583 12.7393H1.96115V49.0235C1.96115 49.5627 2.39845 50 2.93771 50C3.47697 50 3.91427 49.5627 3.91427 49.0235V32.3502H7.84434V49.0234C7.84434 49.5626 8.28165 49.9999 8.8209 49.9999C9.36016 49.9999 9.79747 49.5626 9.79747 49.0234V47.0584H15.6888V49.0234C15.6888 49.5626 16.1261 49.9999 16.6653 49.9999C17.2047 49.9999 17.6419 49.5626 17.6419 49.0234V32.3502H21.5721V49.0234C21.5721 49.5626 22.0094 49.9999 22.5486 49.9999C23.088 49.9999 23.5252 49.5626 23.5252 49.0234C23.5252 47.8578 23.5252 22.8141 23.5252 21.5641H28.4358V37.4283C27.2947 37.8318 26.4747 38.921 26.4747 40.1984C26.4747 41.8182 27.7925 43.136 29.4124 43.136H38.2373C39.8571 43.136 41.1749 41.8182 41.1749 40.1984C41.1749 38.9209 40.3549 37.8317 39.2138 37.4283V21.5641H44.1245V49.0234C44.1245 49.5626 44.5619 49.9999 45.1011 49.9999H49.0233C49.5625 49.9999 49.9998 49.5626 49.9998 49.0234V16.6654C49.9998 16.1261 49.5626 15.6889 49.0233 15.6889ZM15.6808 30.3971V24.5058H17.6498V30.3971H15.6808ZM11.7586 30.3971V24.5058H13.7276V30.3971H11.7586ZM7.83634 30.3971V24.5058H9.80537V30.3971H7.83634ZM19.6029 24.5058H21.5721V30.3971H19.6029V24.5058ZM12.7432 2.30141L21.9723 10.7616H3.51378L12.7432 2.30141ZM21.5721 12.7393V22.5526H3.91417V12.7393H21.5721ZM3.91417 24.5058H5.88321V30.3971H3.91417V24.5058ZM15.6888 40.2025H9.79747V37.2529H15.6888V40.2025ZM9.79737 45.1052V42.1556H15.6887V45.1052H9.79737ZM15.6888 35.2998H9.79747V32.3502H15.6888V35.2998ZM38.2373 41.183H29.4124C28.8694 41.183 28.4278 40.7414 28.4278 40.1985C28.4278 39.6555 28.8694 39.2139 29.4124 39.2139H38.2373C38.7802 39.2139 39.2218 39.6555 39.2218 40.1985C39.2218 40.7414 38.7802 41.183 38.2373 41.183ZM37.2607 37.2608H30.3889V21.5642H37.2607V37.2608ZM48.0467 48.0469H46.0777V20.5876C46.0777 20.0483 45.6405 19.611 45.1011 19.611C44.4499 19.611 24.1775 19.611 23.5252 19.611V17.642H48.0467V48.0469Z" fill="white"/>
</g>
<defs>
<clipPath id="clip0_90_1126">
<rect width="50" height="50" fill="white"/>
</clipPath>
</defs>
</svg>
