<svg width="90" height="90" viewBox="0 0 90 90" fill="none" xmlns="http://www.w3.org/2000/svg">
<g clip-path="url(#clip0_373_1504)">
<path d="M38.9928 0C28.6159 0 20.1738 8.44207 20.1738 18.819C20.1738 29.1959 28.6159 37.6381 38.9928 37.6381C41.1328 37.6381 43.2247 37.2828 45.2227 36.581L51.1458 39.8136C51.6849 40.108 52.3567 40.0959 52.885 39.7823C53.4186 39.4655 53.7456 38.8912 53.7456 38.2706V30.5016C56.3721 27.1867 57.8116 23.0639 57.8116 18.819C57.8118 8.44207 49.3697 0 38.9928 0ZM50.6496 28.733C50.3787 29.051 50.2301 29.4548 50.2301 29.8724V35.3087L46.2 33.1089C45.743 32.8595 45.1849 32.8268 44.7018 33.0212C42.8863 33.7518 40.9656 34.1223 38.9928 34.1223C30.5546 34.1223 23.6895 27.2572 23.6895 18.8188C23.6895 10.3806 30.5546 3.51545 38.9928 3.51545C47.431 3.51545 54.2961 10.3806 54.2961 18.8188C54.2961 22.4504 53.0012 25.9711 50.6496 28.733Z" fill="#A4804D"/>
<path d="M38.6969 58.6812C38.6969 57.7105 37.91 56.9233 36.9391 56.9233H27.8802C27.4002 56.9233 26.9409 57.1197 26.6093 57.4669L0.486845 84.8086C-0.183761 85.5105 -0.158448 86.6232 0.543447 87.2939C0.884111 87.6193 1.3211 87.7809 1.75757 87.7809C2.22093 87.7809 2.68358 87.5988 3.02882 87.2373L28.6319 60.439H36.9391C37.91 60.439 38.6969 59.652 38.6969 58.6812Z" fill="#A4804D"/>
<path d="M87.3727 44.363C88.0073 44.119 88.4443 43.5312 88.4949 42.8531L89.9952 22.7556C90.0745 21.6957 89.1599 20.788 88.101 20.8727L68.4502 22.4584C66.9882 22.5764 66.309 24.414 67.3486 25.4535L71.3439 29.4489L55.8296 44.947H23.9985C23.5295 44.947 23.0797 45.1344 22.7497 45.4678L0.656477 67.7718C-0.0267844 68.4616 -0.0215109 69.5745 0.668255 70.2577C1.01085 70.5973 1.45822 70.7668 1.90523 70.7668C2.35786 70.7668 2.8105 70.5931 3.15415 70.2459L24.7315 48.4626H56.557C57.0228 48.4626 57.4697 48.2777 57.7993 47.9484L75.0726 30.6932C75.7499 30.0166 75.7504 28.8836 75.0733 28.2066L72.5236 25.6569L86.3365 24.5423L85.266 38.8831L82.8115 36.5399C82.1107 35.8709 81.001 35.8951 80.3299 36.5939L60.8064 56.9233H52.4079C51.437 56.9233 50.6501 57.7104 50.6501 58.6811C50.6501 59.6518 51.437 60.4389 52.4079 60.4389H61.5555C62.034 60.4389 62.4919 60.2438 62.8233 59.8988L81.6514 40.293L85.5281 43.9939C86.0201 44.4631 86.7381 44.6074 87.3727 44.363Z" fill="#A4804D"/>
<path d="M43.2124 59.6567C44.0722 60.9452 46.139 60.5122 46.405 58.981C46.6848 57.3701 44.7039 56.2804 43.4926 57.3771C42.851 57.9583 42.7422 58.9383 43.2124 59.6567Z" fill="#A4804D"/>
<path d="M29.377 66.9171L16.0011 80.8597C15.6871 81.187 15.5117 81.6231 15.5117 82.0766V88.2423C15.5117 88.7085 15.697 89.1557 16.0266 89.4853C16.3563 89.815 16.8034 90.0001 17.2697 90.0001L30.6456 89.9985C31.6163 89.9984 32.4032 89.2114 32.4032 88.2407V68.1338C32.4032 67.4163 31.9671 66.7706 31.3013 66.5029C30.6354 66.2352 29.8738 66.3992 29.377 66.9171ZM28.8876 86.4831L19.0273 86.4843V82.7834L28.8876 72.5053V86.4831Z" fill="#A4804D"/>
<path d="M40.8477 66.4446V88.2422C40.8477 88.7083 41.0329 89.1555 41.3625 89.4851C41.6923 89.8149 42.1393 90 42.6056 90L55.9815 89.9984C56.9522 89.9982 57.7392 89.2112 57.7392 88.2406V66.4446C57.7392 65.4739 56.9522 64.6868 55.9814 64.6868H42.6055C41.6346 64.6868 40.8477 65.4739 40.8477 66.4446ZM44.3633 68.2024H54.2236V86.4829L44.3633 86.4842V68.2024Z" fill="#A4804D"/>
<path d="M80.0563 49.3391L66.6803 63.1128C66.3618 63.4408 66.1836 63.8801 66.1836 64.3374V88.2421C66.1836 88.7083 66.3689 89.1555 66.6985 89.4851C67.0282 89.8148 67.4752 89.9999 67.9416 89.9999L81.3175 89.9983C82.2881 89.9982 83.0751 89.2112 83.0751 88.2405V50.5636C83.0751 49.848 82.6413 49.2037 81.9781 48.9346C81.3148 48.6655 80.5546 48.8258 80.0563 49.3391ZM79.5595 86.4829L69.6992 86.4841V65.0504L79.5595 54.8968V86.4829Z" fill="#A4804D"/>
<path d="M41.0142 17.0936C39.2457 16.4682 38.1583 15.963 37.4886 15.4553C37.2017 15.2381 37.1933 14.9043 37.2367 14.6627C37.3079 14.2676 37.6081 13.7406 38.2207 13.556C39.6233 13.1338 40.5141 13.8392 40.6112 13.9209L40.9256 14.147C41.6453 14.6643 42.6388 14.5582 43.2326 13.9004C43.8686 13.196 43.8227 12.112 43.1294 11.4639L42.9682 11.3132C42.5142 10.8945 41.6978 10.3841 40.6358 10.1086V9.81681C40.6358 8.8806 39.9293 8.06304 38.9948 8.00257C37.9711 7.9363 37.1201 8.74718 37.1201 9.75652V10.2192C35.4049 10.772 34.0965 12.261 33.7766 14.0403C33.4779 15.7006 34.0717 17.277 35.3648 18.2569C36.3492 19.0031 37.6883 19.6465 39.8425 20.4082C41.1543 20.8719 41.1255 21.9148 41.0524 22.3419C40.9033 23.2106 40.1733 24.0874 38.8781 24.0874C37.6839 24.0874 36.8252 23.887 36.256 23.4752C35.5385 22.9561 34.5469 22.9607 33.9172 23.5835C33.1392 24.3532 33.2422 25.5992 34.0807 26.2385C34.9106 26.8713 35.9141 27.2798 37.1203 27.4726V27.8209C37.1203 28.7571 37.8268 29.5746 38.7612 29.6351C39.785 29.7014 40.6359 28.8905 40.6359 27.8811V27.345C42.6421 26.7351 44.1479 25.0906 44.5174 22.9361C44.9628 20.3398 43.555 17.9917 41.0142 17.0936Z" fill="#A4804D"/>
</g>
<defs>
<clipPath id="clip0_373_1504">
<rect width="90" height="90" fill="white"/>
</clipPath>
</defs>
</svg>
