<svg width="87" height="87" viewBox="0 0 87 87" fill="none" xmlns="http://www.w3.org/2000/svg">
<g clip-path="url(#real-estat-svg)">
<path d="M85.2467 66.0065L85.0865 65.8463C83.1946 63.9545 80.3919 63.4305 77.9943 64.3941V37.3828H84.4784C85.1659 37.3828 85.7856 36.9686 86.0484 36.3334C86.3113 35.6982 86.1655 34.9671 85.679 34.4814L51.651 0.497053C50.9876 -0.165472 49.9127 -0.165302 49.2493 0.497223L39.9073 9.83001C39.2435 10.4932 39.2428 11.5692 39.9062 12.233C40.5695 12.8971 41.6455 12.8976 42.3092 12.2342L50.4505 4.1011L80.3722 33.9844H74.3554L51.6508 11.309C50.9874 10.6465 49.9127 10.6465 49.2493 11.309L26.5449 33.9844H20.5279L32.8423 21.686C33.5064 21.0228 33.5071 19.947 32.8439 19.2829C32.1807 18.6189 31.1049 18.6182 30.4408 19.2814L15.2213 34.4814C14.7348 34.9672 14.589 35.6982 14.8519 36.3334C15.1147 36.9686 15.7344 37.3828 16.4219 37.3828H22.9395V51.8491H20.4331V51.0262C20.4331 47.9537 17.9336 45.4541 14.861 45.4541H1.69922C0.76074 45.4541 0 46.215 0 47.1533V85.3008C0 86.2391 0.76074 87 1.69922 87H14.861C17.9334 87 20.4331 84.5005 20.4331 81.4279V80.7267L24.8978 83.4308C28.7533 85.7659 33.1737 87.0002 37.681 87.0002H62.3569C67.1769 87.0002 71.8941 85.3295 75.6397 82.2956L84.7815 74.8911C86.0975 73.8251 86.9031 72.2437 86.9917 70.5523C87.0802 68.8609 86.4442 67.2041 85.2467 66.0065ZM17.0347 81.4279C17.0347 82.6266 16.0597 83.6016 14.861 83.6016H3.39844V48.8526H14.861C16.0595 48.8526 17.0347 49.8276 17.0347 51.0262V81.4279ZM26.3379 37.3828H27.248C27.6983 37.3828 28.1301 37.2041 28.4487 36.886L50.4501 14.9129L72.4515 36.886C72.7701 37.2043 73.202 37.3828 73.6521 37.3828H74.5957V66.4823C74.5957 66.5443 74.5994 66.6053 74.6059 66.6655L71.0156 69.3655C70.7833 68.2478 70.2542 67.2019 69.4554 66.4031C68.4924 65.4403 67.2124 64.9102 65.8508 64.9102H61.665V40.6114C61.665 39.6729 60.9043 38.9121 59.9658 38.9121H40.9345C39.996 38.9121 39.2353 39.6729 39.2353 40.6114V53.5881C37.5653 52.4576 35.5981 51.8491 33.5368 51.8491H26.3379V37.3828ZM58.2666 42.3106V64.9102H52.1861C51.2783 64.9102 50.425 64.5567 49.7859 63.9175L42.621 56.7191C42.6286 56.6535 42.6337 56.5872 42.6337 56.5196V42.3106H58.2666ZM83.598 70.3745C83.5591 71.1164 83.2197 71.7825 82.6425 72.2501L73.5007 79.6546C70.3584 82.1999 66.4007 83.6016 62.3569 83.6016H37.681C33.7944 83.6016 29.9827 82.5372 26.6584 80.5238L20.4331 76.7534V55.2476H33.5368C35.3522 55.2476 37.0591 55.9546 38.3402 57.2357L47.38 66.3178C48.6639 67.6016 50.3706 68.3086 52.1861 68.3086H65.8508C66.3047 68.3086 66.7315 68.4853 67.0524 68.8063C67.8315 69.5854 67.8945 70.8688 67.5581 71.6807C67.4576 71.9232 67.3394 72.0964 67.217 72.2223L67.1302 72.2875C67.1356 72.2885 67.1404 72.2894 67.1458 72.2904C66.8508 72.548 66.547 72.5495 66.4184 72.5495H46.0488C44.8745 72.5495 43.7336 72.2112 42.7495 71.571L37.2965 68.0243L37.2766 68.0114C36.4907 67.4988 35.4379 67.7195 34.9249 68.5056C34.4119 69.2915 34.6331 70.3443 35.419 70.8573L40.8965 74.4199C42.4334 75.4195 44.215 75.948 46.0488 75.948H66.4182C67.5586 75.948 68.5864 75.5502 69.3949 74.8365L78.6672 67.8634C79.9241 67.014 81.6086 67.174 82.6833 68.2493L82.8437 68.4096C83.3689 68.9348 83.6369 69.6327 83.598 70.3745Z" fill="#A4804D"/>
<path d="M68.9883 49.3835C68.0498 49.3835 67.2891 50.1445 67.2891 51.0828V61.8514C67.2891 62.7897 68.0498 63.5506 68.9883 63.5506C69.9268 63.5506 70.6875 62.7897 70.6875 61.8514V51.0828C70.6875 50.1445 69.9268 49.3835 68.9883 49.3835Z" fill="#A4804D"/>
<path d="M70.1896 43.4149C69.8736 43.0971 69.4352 42.917 68.9883 42.917C68.5414 42.917 68.103 43.0971 67.7869 43.4149C67.4709 43.7307 67.2891 44.1676 67.2891 44.616C67.2891 45.0631 67.4709 45.5015 67.7869 45.8174C68.103 46.1336 68.5414 46.3153 68.9883 46.3153C69.4352 46.3153 69.8736 46.1336 70.1896 45.8174C70.5057 45.5015 70.6875 45.0631 70.6875 44.616C70.6875 44.1674 70.5057 43.7307 70.1896 43.4149Z" fill="#A4804D"/>
<path d="M47.7243 52.3458C47.4082 52.0299 46.9698 51.8496 46.5229 51.8496C46.0744 51.8496 45.6377 52.0299 45.3199 52.3458C45.0038 52.6635 44.8237 53.1002 44.8237 53.5471C44.8237 53.9957 45.0038 54.4324 45.3199 54.7502C45.6377 55.0662 46.0761 55.248 46.5229 55.248C46.9698 55.248 47.4065 55.0662 47.7243 54.7502C48.0403 54.4324 48.2222 53.9957 48.2222 53.5471C48.2222 53.1002 48.0403 52.6635 47.7243 52.3458Z" fill="#A4804D"/>
<path d="M37.5762 14.5557C36.9126 13.8922 35.8367 13.8922 35.173 14.5557C34.5094 15.2192 34.5094 16.2952 35.173 16.9589L35.1733 16.9591C35.5051 17.2909 35.9398 17.4566 36.3746 17.4566C36.8095 17.4566 37.2445 17.2906 37.5762 16.9589C38.2397 16.2954 38.2395 15.2192 37.5762 14.5557Z" fill="#A4804D"/>
<path d="M50.4502 22.3727C46.796 22.3727 43.8232 25.3455 43.8232 28.9997C43.8232 32.6539 46.796 35.6266 50.4502 35.6266C54.1044 35.6266 57.0771 32.6539 57.0771 28.9997C57.0771 25.3455 54.1044 22.3727 50.4502 22.3727ZM50.4502 32.2282C48.6699 32.2282 47.2217 30.78 47.2217 28.9997C47.2217 27.2194 48.6699 25.7712 50.4502 25.7712C52.2305 25.7712 53.6787 27.2194 53.6787 28.9997C53.6787 30.78 52.2305 32.2282 50.4502 32.2282Z" fill="#A4804D"/>
<path d="M11.4172 74.9235C11.1011 74.6073 10.6644 74.4257 10.2158 74.4257C9.76893 74.4257 9.33223 74.6073 9.01447 74.9235C8.69842 75.2396 8.5166 75.678 8.5166 76.1249C8.5166 76.5718 8.69842 77.0102 9.01447 77.3261C9.33223 77.6421 9.76893 77.8241 10.2158 77.8241C10.6644 77.8241 11.1011 77.6423 11.4172 77.3261C11.7349 77.0102 11.915 76.5718 11.915 76.1249C11.915 75.678 11.7349 75.2396 11.4172 74.9235Z" fill="#A4804D"/>
</g>
<defs>
<clipPath id="real-estat-svg">
<rect width="87" height="87" fill="white"/>
</clipPath>
</defs>
</svg>
