<svg width="87" height="87" viewBox="0 0 87 87" fill="none" xmlns="http://www.w3.org/2000/svg">
<g clip-path="url(#clip0_373_1490)">
<path d="M76.6505 12.0491C77.0853 12.0491 77.5203 11.8831 77.852 11.5514L80.8289 8.57456C81.4924 7.91102 81.4924 6.83507 80.8289 6.17136C80.1653 5.50798 79.0894 5.50798 78.4257 6.17136L75.4488 9.14822C74.7853 9.81177 74.7853 10.8877 75.4488 11.5514C75.7809 11.8831 76.2157 12.0491 76.6505 12.0491Z" fill="#A4804D"/>
<path d="M54.0077 11.5515C54.3396 11.8832 54.7744 12.0492 55.2092 12.0492C55.6441 12.0492 56.0791 11.8832 56.4108 11.5515C57.0743 10.888 57.0743 9.81201 56.4108 9.1483L53.4341 6.1716C52.7705 5.50823 51.6946 5.50823 51.0309 6.1716C50.3673 6.83515 50.3673 7.91109 51.0309 8.57481L54.0077 11.5515Z" fill="#A4804D"/>
<path d="M65.9298 31.134C71.479 31.134 75.9935 26.6195 75.9935 21.0704C75.9935 15.5212 71.479 11.0066 65.9298 11.0066C60.3807 11.0066 55.8662 15.5211 55.8662 21.0704C55.866 26.6195 60.3807 31.134 65.9298 31.134ZM65.9298 14.4052C69.6051 14.4052 72.595 17.3953 72.595 21.0706C72.595 24.7458 69.6051 27.7357 65.9298 27.7357C62.2546 27.7357 59.2646 24.7458 59.2646 21.0706C59.2646 17.3953 62.2546 14.4052 65.9298 14.4052Z" fill="#A4804D"/>
<path d="M77.852 30.5896C77.1885 29.9262 76.1125 29.9262 75.4488 30.5896C74.7853 31.2531 74.7853 32.3291 75.4488 32.9928L78.4257 35.9696C78.7575 36.3013 79.1924 36.4673 79.6272 36.4673C80.062 36.4673 80.497 36.3013 80.8287 35.9696C81.4923 35.3061 81.4923 34.2301 80.8287 33.5664L77.852 30.5896Z" fill="#A4804D"/>
<path d="M54.0077 30.5896L51.0309 33.5664C50.3673 34.23 50.3673 35.3059 51.0309 35.9696C51.3627 36.3013 51.7975 36.4673 52.2324 36.4673C52.6672 36.4673 53.1022 36.3013 53.4339 35.9696L56.4108 32.9928C57.0743 32.3292 57.0743 31.2533 56.4108 30.5896C55.7472 29.9262 54.6713 29.9262 54.0077 30.5896Z" fill="#A4804D"/>
<path d="M79.3916 21.0703C79.3916 22.0086 80.1523 22.7695 81.0908 22.7695H85.3006C86.2391 22.7695 86.9999 22.0086 86.9999 21.0703C86.9999 20.132 86.2391 19.3711 85.3006 19.3711H81.0908C80.1523 19.3711 79.3916 20.132 79.3916 21.0703Z" fill="#A4804D"/>
<path d="M65.9297 7.6085C66.8682 7.6085 67.6289 6.84759 67.6289 5.90928V1.69946C67.6289 0.761154 66.8682 0.000244141 65.9297 0.000244141C64.9912 0.000244141 64.2305 0.761154 64.2305 1.69946V5.90911C64.2305 6.84759 64.9912 7.6085 65.9297 7.6085Z" fill="#A4804D"/>
<path d="M64.2305 36.2314V40.4413C64.2305 41.3796 64.9912 42.1405 65.9297 42.1405C66.8682 42.1405 67.6289 41.3796 67.6289 40.4413V36.2314C67.6289 35.2931 66.8682 34.5322 65.9297 34.5322C64.9912 34.5322 64.2305 35.293 64.2305 36.2314Z" fill="#A4804D"/>
<path d="M46.5586 22.7695H50.7684C51.7069 22.7695 52.4676 22.0086 52.4676 21.0703C52.4676 20.132 51.7069 19.3711 50.7684 19.3711H46.5586C45.6201 19.3711 44.8594 20.132 44.8594 21.0703C44.8594 22.0088 45.6201 22.7695 46.5586 22.7695Z" fill="#A4804D"/>
<path d="M85.3008 83.6015H61.8964V78.8437H81.6108C82.8914 78.8437 84.0721 78.2602 84.8501 77.2431C85.6282 76.2258 85.8819 74.9333 85.5465 73.6975L79.0903 49.9086C78.6094 48.1363 76.9909 46.8986 75.1546 46.8986H35.7673C33.931 46.8986 32.3125 48.1363 31.8316 49.9086L28.6301 61.7048V35.8983L35.333 39.7681C37.4364 40.9825 39.8366 41.6085 42.2448 41.6083C43.4608 41.6083 44.679 41.4487 45.862 41.1247C46.763 40.878 47.2935 39.9407 47.0522 39.0381C46.1014 35.4787 43.8204 32.5038 40.6297 30.6615L28.8 23.8317V10.2545C28.8 6.5701 27.3642 3.10729 24.7512 0.49815C24.0902 -0.163012 23.0193 -0.165561 22.3548 0.491523C19.7558 3.06209 18.2651 6.6328 18.2651 10.2881V23.8592L6.48313 30.6617C3.29235 32.5038 1.01134 35.4786 0.0582504 39.0464C-0.183547 39.9492 0.349325 40.878 1.25092 41.1247C2.43391 41.4487 3.65174 41.6083 4.86803 41.6083C7.27598 41.6083 9.67645 40.9823 11.7799 39.7681L18.4352 35.9256V51.5713C18.4352 52.5096 19.1959 53.2705 20.1344 53.2705C21.0729 53.2705 21.8336 52.5096 21.8336 51.5713V33.9637L23.5566 32.969L25.232 33.9364V83.6017H21.8336V66.8645C21.8336 65.9262 21.0729 65.1653 20.1344 65.1653C19.1959 65.1653 18.4352 65.9262 18.4352 66.8645V83.6017H1.69969C0.761213 83.6017 0.000477302 84.3626 0.000477302 85.3009C0.000477302 86.2392 0.761213 87.0001 1.69969 87.0001H85.3008C86.2392 87.0001 87 86.2392 87 85.3009C87 84.3626 86.2392 83.6015 85.3008 83.6015ZM25.9814 26.9005C25.9814 28.2506 24.8828 29.3492 23.5325 29.3492C22.1821 29.3492 21.0836 28.2506 21.0836 26.9005C21.0836 25.5501 22.1821 24.4516 23.5325 24.4516C24.8828 24.4516 25.9814 25.5501 25.9814 26.9005ZM43.134 38.1732C41.0253 38.354 38.8775 37.8904 37.0322 36.825L27.4114 31.2707C28.3501 30.4367 29.0189 29.3062 29.2697 28.0272L38.9304 33.6047C40.7907 34.6788 42.2403 36.2634 43.134 38.1732ZM23.5476 4.32902C24.7527 6.05524 25.4016 8.10483 25.4016 10.2545V21.3612C24.8142 21.1626 24.1862 21.0531 23.5325 21.0531C22.8788 21.0531 22.2508 21.1626 21.6633 21.3612V10.2881C21.6635 8.15699 22.3361 6.06408 23.5476 4.32902ZM10.0805 36.825C8.23501 37.8906 6.08619 38.3555 3.97765 38.173C4.8699 36.2662 6.32051 34.6794 8.18217 33.6047L17.7997 28.052C18.0559 29.3295 18.7302 30.4569 19.6726 31.2871L10.0805 36.825ZM42.7488 75.4453L43.5789 69.3282H53.7468V75.4453H42.7488ZM29.3111 75.4453C29.0189 75.4453 28.8474 75.2783 28.7713 75.1785C28.695 75.079 28.5786 74.8698 28.6553 74.5876L30.0826 69.3282H40.1492L39.3191 75.4453H29.3111ZM32.665 59.8126H41.4404L40.6104 65.9297H31.0049L32.665 59.8126ZM53.7466 50.297V56.4142H45.3311L46.1612 50.297H53.7466ZM64.7305 50.297L65.5605 56.4142H57.145V50.297H64.7305ZM79.9172 65.9297H70.2815L69.4514 59.8126H78.257L79.9172 65.9297ZM66.8518 65.9297H57.145V59.8126H66.0217L66.8518 65.9297ZM53.7466 59.8126V65.9297H44.0401L44.8701 59.8126H53.7466ZM57.145 69.3282H67.3129L68.143 75.4453H57.145V69.3282ZM82.1508 75.1785C82.0746 75.2783 81.903 75.4453 81.6109 75.4453H71.5727L70.7426 69.3282H80.8395L82.2668 74.5876C82.3433 74.8698 82.2269 75.079 82.1508 75.1785ZM75.8105 50.7986L77.3345 56.4142H68.9901L68.16 50.297H75.1546C75.4606 50.297 75.7305 50.5033 75.8105 50.7986ZM35.7673 50.297H42.7317L41.9016 56.4142H33.5874L35.1114 50.7986C35.1916 50.5033 35.4613 50.297 35.7673 50.297ZM28.6301 78.7872C28.8527 78.8242 29.0802 78.8437 29.3111 78.8437H48.9824V83.6015H28.6301V78.7872ZM52.3808 83.6015V78.8437H58.4979V83.6015H52.3808Z" fill="#A4804D"/>
<path d="M20.1338 60.9165C20.5807 60.9165 21.0191 60.7362 21.3351 60.4185C21.6512 60.1026 21.833 59.6642 21.833 59.2173C21.833 58.7704 21.6512 58.332 21.3351 58.0159C21.0191 57.6999 20.5807 57.5181 20.1338 57.5181C19.6869 57.5181 19.2485 57.6997 18.9324 58.0159C18.6164 58.3322 18.4346 58.7704 18.4346 59.2173C18.4346 59.6642 18.6164 60.1026 18.9324 60.4185C19.2485 60.7364 19.6869 60.9165 20.1338 60.9165Z" fill="#A4804D"/>
</g>
<defs>
<clipPath id="clip0_373_1490">
<rect width="87" height="87" fill="white"/>
</clipPath>
</defs>
</svg>
