<svg width="87" height="87" viewBox="0 0 87 87" fill="none" xmlns="http://www.w3.org/2000/svg">
<g clip-path="url(#clip0_373_1514)">
<path d="M45.6514 41.3506C44.987 40.6862 43.9114 40.6862 43.247 41.3506C42.5843 42.0133 42.5843 43.0889 43.247 43.7533C43.9114 44.416 44.987 44.416 45.6514 43.7533C46.3141 43.0889 46.3141 42.0133 45.6514 41.3506Z" fill="#A4804D"/>
<path d="M67.2777 19.7228C63.9574 16.4027 58.5825 16.4025 55.262 19.7228C51.9504 23.0344 51.9502 28.4243 55.2625 31.7386C58.5753 35.0494 63.9652 35.0507 67.2777 31.7383C70.5976 28.4184 70.5983 23.0432 67.2777 19.7228ZM64.8747 29.3351C62.8878 31.3222 59.6535 31.3222 57.6656 29.3354C55.6783 27.347 55.6782 24.1127 57.6652 22.1258C59.6572 20.1338 62.8823 20.1335 64.8747 22.1258C66.8666 24.1177 66.867 27.3429 64.8747 29.3351Z" fill="#A4804D"/>
<path d="M86.5019 0.497717C86.1681 0.164161 85.7128 -0.0166357 85.2393 0.0012061C84.8552 0.0149697 75.7074 0.38268 64.8333 4.22614C56.1197 7.30273 48.8568 11.7076 43.2461 17.3184C41.9889 18.5757 40.7654 19.9089 39.5949 21.2939C34.0473 18.0284 29.6018 19.0523 26.7914 20.5563C20.3207 24.0193 16.3154 33.4221 16.3154 40.1475C16.3159 40.8347 16.73 41.4544 17.3649 41.7173C17.5751 41.8045 17.796 41.8468 18.0148 41.8468C18.4571 41.8468 18.8916 41.674 19.2167 41.3491C22.6292 37.9365 26.8383 38.15 28.2133 38.3307L28.8084 38.9258C27.6373 41.7125 26.6939 44.4836 26.002 47.1787C25.7522 48.1541 25.8365 49.1862 26.2078 50.1303C24.5717 50.8842 22.9933 51.9912 21.619 53.3656C17.2451 57.7397 16.3569 68.3996 16.3212 68.8512C16.2821 69.3469 16.4619 69.8349 16.8135 70.1864C17.1334 70.5062 17.5662 70.6842 18.0148 70.6842C18.0593 70.6842 18.104 70.6825 18.1487 70.6789C18.6004 70.6434 29.2606 69.7552 33.6345 65.3812C35.0083 64.0074 36.1152 62.4292 36.8691 60.7935C37.8686 61.1866 38.8973 61.235 39.8224 60.9979C42.5163 60.3062 45.2871 59.3631 48.0741 58.1919L48.6692 58.7869C48.8498 60.1621 49.0632 64.3712 45.6509 67.7834C45.165 68.2694 45.0196 69.0002 45.2826 69.6351C45.5455 70.2701 46.165 70.684 46.8524 70.684C53.5779 70.684 62.9805 66.6788 66.4435 60.208C67.9474 57.398 68.9714 52.9525 65.7058 47.4047C67.0902 46.2346 68.4236 45.0112 69.6813 43.7535C75.2921 38.1426 79.6968 30.8797 82.7734 22.1668C86.6171 11.2922 86.9846 2.14426 86.9984 1.76023C87.0154 1.2887 86.8354 0.831443 86.5019 0.497717ZM20.1145 36.4927C21.1701 31.3844 24.236 25.7788 28.3957 23.5525C31.1754 22.065 34.2138 22.2108 37.4443 23.9792C34.6921 27.5988 32.2994 31.4985 30.3051 35.6166C30.2798 35.601 29.9739 35.2164 29.4057 35.0883C29.172 35.0355 24.6761 34.0684 20.1145 36.4927ZM31.2315 62.978C28.8951 65.3145 23.4142 66.5467 19.9501 67.0499C20.4534 63.5855 21.6858 58.1049 24.0221 55.7686C25.3304 54.4602 26.8475 53.4682 28.3724 52.9095L34.0906 58.6277C33.5319 60.1526 32.5401 61.6696 31.2315 62.978ZM38.9782 57.7059C38.4865 57.8318 37.9169 57.6469 37.4934 57.2242C35.2952 55.0259 34.4352 54.1659 34.1653 53.8962C33.6705 53.4014 32.4571 52.188 29.777 49.5077C29.3532 49.083 29.1683 48.5136 29.2939 48.0227C29.8381 45.9031 30.5499 43.7285 31.4155 41.5329L45.4672 55.5846C43.2713 56.4503 41.097 57.162 38.9782 57.7059ZM63.4476 58.6044C61.2213 62.7639 55.6159 65.83 50.5077 66.8854C52.1364 63.8205 52.4955 59.9189 51.9004 57.5531C51.7623 57.0036 51.4037 56.7273 51.3837 56.6949C55.5014 54.7005 59.4009 52.3078 63.0209 49.5556C64.7893 52.7865 64.9349 55.8252 63.4476 58.6044ZM67.2786 41.3504C65.7475 42.8814 64.0987 44.3606 62.3781 45.7466C58.2419 49.0771 53.6893 51.8981 48.8323 54.1438L32.8563 38.1681C35.102 33.3108 37.923 28.7582 41.2531 24.6225C42.6404 22.9007 44.1194 21.2518 45.6498 19.7215C50.6838 14.6874 57.1805 10.6809 64.965 7.79704L79.2031 22.0351C76.3195 29.8194 72.3131 36.3162 67.2786 41.3504ZM80.4256 18.4513L68.5488 6.57445C75.0196 4.56462 80.6489 3.81204 83.4587 3.54152C83.1881 6.35185 82.4353 11.9812 80.4256 18.4513Z" fill="#A4804D"/>
<path d="M40.8447 70.186C40.1808 69.5224 39.1049 69.5228 38.4415 70.1863L33.6361 74.9934C32.9727 75.6571 32.9729 76.733 33.6364 77.3964C34.3003 78.0598 35.3763 78.0598 36.0396 77.3961L40.845 72.589C41.5084 71.9253 41.5082 70.8493 40.8447 70.186Z" fill="#A4804D"/>
<path d="M16.8145 46.156C16.1511 45.4923 15.0753 45.4923 14.4114 46.1557L9.60436 50.9611C8.94064 51.6244 8.94047 52.7004 9.60385 53.3641C10.2671 54.0275 11.3428 54.0282 12.0069 53.3644L16.814 48.5591C17.4777 47.8957 17.4778 46.8197 16.8145 46.156Z" fill="#A4804D"/>
<path d="M28.8293 72.5905C28.1661 71.9269 27.09 71.9269 26.4263 72.5903L14.9158 84.0991C14.2521 84.7626 14.2521 85.8386 14.9156 86.5021C15.5788 87.1656 16.6549 87.166 17.3186 86.5023L28.8291 74.9935C29.4928 74.3299 29.4928 73.254 28.8293 72.5905Z" fill="#A4804D"/>
<path d="M15.2355 72.5905C14.5722 71.9269 13.4961 71.9269 12.8325 72.5903L1.32203 84.0991C0.658312 84.7626 0.658312 85.8386 1.32186 86.5021C1.98506 87.1656 3.06117 87.166 3.72489 86.5023L15.2354 74.9935C15.8991 74.3299 15.8991 73.254 15.2355 72.5905Z" fill="#A4804D"/>
<path d="M14.4095 58.1706C13.7461 57.5072 12.67 57.5072 12.0064 58.1708L0.497637 69.6813C-0.165907 70.345 -0.165907 71.4207 0.497806 72.0845C1.16135 72.748 2.23729 72.748 2.90084 72.0843L14.4096 60.5738C15.0732 59.9101 15.0732 58.8343 14.4095 58.1706Z" fill="#A4804D"/>
<path d="M52.8602 34.1405C52.1965 33.4769 51.1209 33.4769 50.457 34.1405L48.0543 36.5432C47.3908 37.2067 47.3908 38.2827 48.0543 38.9464C48.718 39.6099 49.7938 39.6099 50.4575 38.9464L52.8602 36.5437C53.5237 35.8801 53.5237 34.8042 52.8602 34.1405Z" fill="#A4804D"/>
</g>
<defs>
<clipPath id="clip0_373_1514">
<rect width="87" height="87" fill="white"/>
</clipPath>
</defs>
</svg>
