<svg width="87" height="87" viewBox="0 0 87 87" fill="none" xmlns="http://www.w3.org/2000/svg">
<g clip-path="url(#clip0_90_1074)">
<path d="M85.3008 0H1.69922C0.76074 0 0 0.76074 0 1.69922V85.3008C0 86.2391 0.76074 87 1.69922 87H85.3008C86.2391 87 87 86.2391 87 85.3008V1.69922C87 0.76074 86.2391 0 85.3008 0ZM74.334 41.8008C75.0688 37.0397 78.8405 33.268 83.6016 32.5332V41.8008H74.334ZM83.6016 45.1992V54.4668C78.8405 53.732 75.0688 49.9603 74.334 45.1992H83.6016ZM70.9084 41.8008H53.5862C52.8671 37.5193 49.4807 34.1329 45.1992 33.4138V16.0918C51.8367 15.3135 57.1152 10.0356 57.8943 3.39844H70.9084C71.6873 10.0351 76.9649 15.3127 83.6016 16.0916V29.1076C76.9649 29.8865 71.6873 35.1641 70.9084 41.8008ZM43.5 50.3315C39.733 50.3315 36.6685 47.267 36.6685 43.5C36.6685 39.733 39.733 36.6685 43.5 36.6685C47.267 36.6685 50.3315 39.733 50.3315 43.5C50.3315 47.267 47.267 50.3315 43.5 50.3315ZM45.1992 12.6661V3.39844H54.4685C53.7337 8.15999 49.9611 11.9321 45.1992 12.6661ZM41.8008 12.6656C37.0406 11.9302 33.2697 8.15897 32.5349 3.39844H41.8008V12.6656ZM41.8008 16.0914V33.4138C37.5193 34.1329 34.1329 37.5193 33.4138 41.8008H16.0916C15.3127 35.1641 10.0351 29.8865 3.39844 29.1076V16.0916C10.0351 15.3127 15.3127 10.0351 16.0916 3.39844H29.1093C29.8881 10.0346 35.1648 15.3118 41.8008 16.0914ZM3.39844 41.8008V32.5332C8.15948 33.268 11.9312 37.0397 12.666 41.8008H3.39844ZM12.666 45.1992C11.9312 49.9603 8.15948 53.732 3.39844 54.4668V45.1992H12.666ZM3.39844 57.8924C10.0351 57.1135 15.3127 51.8359 16.0916 45.1992H33.4138C34.1329 49.4807 37.5193 52.8671 41.8008 53.5862V70.9082C35.1633 71.6865 29.8848 76.9644 29.1057 83.6016H16.0916C15.3127 76.9649 10.0351 71.6873 3.39844 70.9084V57.8924ZM41.8008 74.3337V83.6016H32.5315C33.2663 78.84 37.0389 75.0679 41.8008 74.3337ZM45.1992 74.3344C49.9594 75.0696 53.7305 78.841 54.4651 83.6016H45.1992V74.3344ZM45.1992 70.9086V53.5862C49.4807 52.8671 52.8671 49.4807 53.5862 45.1992H70.9084C71.6873 51.8359 76.9649 57.1135 83.6016 57.8924V70.9084C76.9649 71.6873 71.6873 76.9649 70.9084 83.6016H57.8907C57.1119 76.9654 51.8352 71.6882 45.1992 70.9086ZM83.6016 12.666C78.8405 11.9312 75.0688 8.15948 74.334 3.39844H83.6016V12.666ZM12.666 3.39844C11.9312 8.15948 8.15948 11.9312 3.39844 12.666V3.39844H12.666ZM3.39844 74.334C8.15948 75.0688 11.9312 78.8405 12.666 83.6016H3.39844V74.334ZM74.334 83.6016C75.0688 78.8405 78.8405 75.0688 83.6016 74.334V83.6016H74.334Z" fill="#A4804D"/>
<path d="M13.4512 21.7501C13.1478 22.2759 13.1478 22.9236 13.4512 23.4493L17.2901 30.0984C17.5936 30.6241 18.1547 30.948 18.7616 30.948H26.4394C27.0464 30.948 27.6074 30.6241 27.9109 30.0984L31.7498 23.4493C32.0533 22.9236 32.0533 22.2759 31.7498 21.7501L27.9109 15.1011C27.6074 14.5753 27.0464 14.2515 26.4394 14.2515H18.7616C18.1547 14.2515 17.5936 14.5753 17.2901 15.1011L13.4512 21.7501ZM19.7428 17.6499H25.4584L28.3162 22.5997L25.4584 27.5496H19.7428L16.8849 22.5997L19.7428 17.6499Z" fill="#A4804D"/>
<path d="M69.7097 15.1011C69.4063 14.5753 68.8452 14.2515 68.2382 14.2515H60.5605C59.9535 14.2515 59.3924 14.5753 59.0889 15.1011L55.2501 21.7501C54.9466 22.2759 54.9466 22.9236 55.2501 23.4493L59.0889 30.0984C59.3924 30.6241 59.9535 30.948 60.5605 30.948H68.2382C68.8452 30.948 69.4063 30.6241 69.7097 30.0984L73.5486 23.4493C73.8521 22.9236 73.8521 22.2759 73.5486 21.7501L69.7097 15.1011ZM67.2573 27.5496H61.5416L58.6837 22.5997L61.5414 17.6499H67.2571L70.115 22.5997L67.2573 27.5496Z" fill="#A4804D"/>
<path d="M73.5486 65.2501C73.8521 64.7244 73.8521 64.0766 73.5486 63.5509L69.7097 56.9019C69.4063 56.3761 68.8452 56.0522 68.2382 56.0522H60.5605C59.9535 56.0522 59.3924 56.3761 59.0889 56.9019L55.2501 63.5509C54.9466 64.0766 54.9466 64.7244 55.2501 65.2501L59.0889 71.8992C59.3924 72.4249 59.9535 72.7488 60.5605 72.7488H68.2382C68.8452 72.7488 69.4063 72.4249 69.7097 71.8992L73.5486 65.2501ZM67.2573 69.3503H61.5416L58.6837 64.4005L61.5414 59.4507H67.2571L70.115 64.4005L67.2573 69.3503Z" fill="#A4804D"/>
<path d="M17.2901 71.8992C17.5936 72.4249 18.1547 72.7488 18.7616 72.7488H26.4394C27.0464 72.7488 27.6074 72.4249 27.9109 71.8992L31.7498 65.2501C32.0533 64.7244 32.0533 64.0766 31.7498 63.5509L27.9109 56.9019C27.6074 56.3761 27.0464 56.0522 26.4394 56.0522H18.7616C18.1547 56.0522 17.5936 56.3761 17.2901 56.9019L13.4512 63.5509C13.1478 64.0766 13.1478 64.7244 13.4512 65.2501L17.2901 71.8992ZM19.7428 59.4507H25.4584L28.3162 64.4005L25.4584 69.3503H19.7428L16.8849 64.4005L19.7428 59.4507Z" fill="#A4804D"/>
</g>
<defs>
<clipPath id="clip0_90_1074">
<rect width="87" height="87" fill="white"/>
</clipPath>
</defs>
</svg>
