<svg width="87" height="87" viewBox="0 0 87 87" fill="none" xmlns="http://www.w3.org/2000/svg">
<g clip-path="url(#clip0_90_1042)">
<path d="M85.3008 0H85.1309H1.69922C0.76091 0 0 0.76091 0 1.69922V9.85547C0 10.7938 0.76091 11.5547 1.69922 11.5547H14.2734V22.5996H10.9489C7.30086 22.5996 4.33301 25.5724 4.33301 29.2266C4.33301 32.8807 7.30086 35.8535 10.9489 35.8535H14.2734V42.3105H10.9489C7.30086 42.3105 4.33301 45.2833 4.33301 48.9375C4.33301 52.5917 7.30086 55.5645 10.9489 55.5645H14.2734V62.0215H10.9489C7.30086 62.0215 4.33301 64.9943 4.33301 68.6484C4.33301 72.3026 7.30086 75.2754 10.9489 75.2754H14.2734V85.3008C14.2734 86.2391 15.0343 87 15.9727 87H22.7695C23.7078 87 24.4688 86.2391 24.4688 85.3008V75.2754H62.5312V85.3008C62.5312 86.2391 63.2922 87 64.2305 87H71.0273C71.9657 87 72.7266 86.2391 72.7266 85.3008V75.2754H80.0332C80.9715 75.2754 81.7324 74.5145 81.7324 73.5762C81.7324 72.6379 80.9715 71.877 80.0332 71.877H72.7266V65.4199H75.8812C79.5292 65.4199 82.4971 62.4471 82.4971 58.793C82.4971 55.1388 79.5292 52.166 75.8812 52.166H72.7266V47.8794C73.6759 48.4169 74.8468 48.747 76.2708 48.747H85.3008C86.2391 48.747 87 47.9861 87 47.0478V1.69922C87 0.76091 86.2391 0 85.3008 0ZM14.2734 71.877H10.9489C9.17493 71.877 7.73145 70.4287 7.73145 68.6484C7.73145 66.8682 9.17476 65.4199 10.9489 65.4199H14.2734V71.877ZM14.2734 52.166H10.9489C9.17493 52.166 7.73145 50.7178 7.73145 48.9375C7.73145 47.1572 9.17476 45.709 10.9489 45.709H14.2734V52.166ZM14.2734 32.4551H10.9489C9.17493 32.4551 7.73145 31.0068 7.73145 29.2266C7.73145 27.4463 9.17476 25.998 10.9489 25.998H14.2734V32.4551ZM81.0284 3.39844L76.5498 7.87707L72.0712 3.39844H81.0284ZM67.2649 3.39844L74.1468 10.2803L66.3545 18.0724L58.5624 10.2803L65.4442 3.39844H67.2649ZM60.6378 3.39844L56.1592 7.87707L51.6805 3.39844H60.6378ZM46.8743 3.39844L53.7561 10.2803L45.9639 18.0724L38.1718 10.2803L45.0536 3.39844H46.8743ZM48.4435 25.3522C46.8563 25.3953 45.2555 25.4375 43.6932 25.1532C44.0864 24.7591 45.3943 23.0134 45.9668 22.9583C45.9817 22.9568 45.9963 22.9566 46.0103 22.9575C46.5975 22.9967 48.0046 24.9148 48.4435 25.3522ZM43.5607 20.4756L41.048 22.9884C39.9733 21.3094 39.6963 19.2902 39.6552 18.9385C39.6474 18.0003 39.5221 17.0826 39.2876 16.2027L43.5607 20.4756ZM40.2472 3.39844L35.7686 7.87707L31.2899 3.39844H40.2472ZM37.0917 22.5996H24.4688V11.5547C27.5095 11.5547 30.7188 11.1297 33.2986 13.075C34.7879 14.207 35.7794 15.8761 36.1203 17.7104C36.4329 19.393 36.4719 20.9568 37.0917 22.5996ZM3.39844 8.15625V3.39844H6.09289L10.8507 8.15625H3.39844ZM15.3779 7.87707L10.8993 3.39844H19.8566L15.3779 7.87707ZM21.0703 83.6016H17.6719V11.5547H21.0703V83.6016ZM19.9052 8.15625L24.663 3.39844H26.4837L31.6116 8.52634C30.6991 8.28148 29.7501 8.15625 28.7814 8.15625H19.9052ZM62.5312 71.877H24.4688V65.4199H62.5312V71.877ZM62.5312 62.0215H24.4688V55.5645H62.5312V62.0215ZM62.5312 52.166H24.4688V45.709H62.5312V52.166ZM62.5312 42.3105H24.4688V35.8535H62.5312V42.3105ZM62.5314 32.4551H24.4688V25.998H39.0735C39.3062 26.263 39.5565 26.5182 39.8285 26.7586L39.8287 26.7588C41.3294 28.085 43.1688 28.7576 45.2962 28.7576C45.2962 28.7576 62.4874 28.7656 62.5314 28.7715V32.4551ZM59.0677 25.3591H53.2506L48.3671 20.4756L56.1592 12.6835L63.9513 20.4756L59.0677 25.3591ZM65.9297 83.6016V29.8661C65.9625 29.8838 65.9953 29.9001 66.0281 29.9183C68.227 31.1397 69.296 32.9803 69.296 35.5453L69.3281 83.6016H65.9297ZM67.5599 26.8825C66.1062 26.0968 64.6541 25.7097 63.709 25.5243L66.3545 22.8788L74.1466 30.6709L72.2851 32.5324C71.5823 30.1163 69.983 28.1922 67.5599 26.8825ZM75.8812 55.5645C77.6551 55.5645 79.0986 57.0127 79.0986 58.793C79.0986 60.5732 77.6553 62.0215 75.8812 62.0215H72.7266V55.5645H75.8812ZM76.2708 45.3486C72.916 45.3486 72.7031 42.2422 72.6945 41.6309V36.9293L76.5496 33.0741L83.6014 40.1259V45.3486H76.2708ZM83.6016 35.3195L78.953 30.6709L83.6016 26.0223V35.3195ZM83.6016 21.2161L76.5498 28.2679L68.7577 20.4756L76.5498 12.6835L83.6016 19.7352V21.2161ZM83.6016 14.929L78.953 10.2803L83.6016 5.63172V14.929Z" fill="#A4804D"/>
</g>
<defs>
<clipPath id="clip0_90_1042">
<rect width="87" height="87" fill="white"/>
</clipPath>
</defs>
</svg>
