<svg width="87" height="87" viewBox="0 0 87 87" fill="none" xmlns="http://www.w3.org/2000/svg">
<g clip-path="url(#clip0_90_1028)">
<path d="M78.5039 51.997H71.2029L82.232 10.8356C82.5834 9.52382 82.4014 8.15085 81.7192 6.96939C81.0369 5.78792 79.9389 4.94358 78.6274 4.59235C77.3158 4.24095 75.9428 4.42294 74.7612 5.10517C73.5797 5.78741 72.7356 6.88528 72.384 8.1969L60.6478 51.9972H26.3522L14.616 8.1969C14.2646 6.88511 13.4203 5.78724 12.2388 5.10517C11.0573 4.42311 9.68419 4.24078 8.37273 4.59235C7.0611 4.94358 5.96307 5.78792 5.28083 6.96939C4.5986 8.15085 4.41661 9.52382 4.76801 10.8354L15.7971 51.997H8.49609C3.81135 51.997 0 55.8083 0 60.4929V77.4853C0 80.2961 2.28681 82.5829 5.09766 82.5829H12.9141C13.6937 82.5829 14.3734 82.0523 14.5626 81.2959L15.0906 79.1845H71.9097L72.4375 81.2959C72.6266 82.0523 73.3063 82.5829 74.0861 82.5829H81.9025C84.7134 82.5829 87.0002 80.2961 87.0002 77.4853V60.4929C87 55.8083 83.1887 51.997 78.5039 51.997ZM75.6665 9.07642C75.7831 8.64142 76.065 8.27643 76.4603 8.04805C76.8557 7.81951 77.3129 7.7585 77.7476 7.87473C78.1824 7.9913 78.5476 8.2732 78.7758 8.66844C79.004 9.06384 79.0657 9.5211 78.9491 9.95576L67.6843 51.9968H64.1659L75.6665 9.07642ZM19.7109 55.3954H67.2891V58.7937C67.2891 59.7306 66.5268 60.4929 65.5898 60.4929H21.4102C20.4732 60.4929 19.7109 59.7306 19.7109 58.7937V55.3954ZM8.05056 9.95593C7.93399 9.5211 7.99567 9.06401 8.22388 8.66861C8.45208 8.27337 8.81742 7.99147 9.25225 7.8749C9.68657 7.75816 10.1442 7.81968 10.5394 8.04822C10.9348 8.2766 11.2167 8.64159 11.3331 9.07642L22.8336 51.9972H19.3152L8.05056 9.95593ZM15.94 75.786L16.2619 74.4989C16.459 73.7103 16.9483 72.3876 18.0117 72.3876H68.9883C70.0517 72.3876 70.541 73.7103 70.7381 74.4991L71.06 75.786H15.94ZM83.6016 77.4853C83.6016 78.4222 82.8393 79.1845 81.9023 79.1845H75.4127L74.0353 73.6748C73.3019 70.7407 71.4153 68.9892 68.9884 68.9892H18.0117C15.5849 68.9892 13.6981 70.7409 12.9649 73.6746L11.5873 79.1845H5.09766C4.16071 79.1845 3.39844 78.4222 3.39844 77.4853V60.4929C3.39844 57.6822 5.68525 55.3954 8.49609 55.3954H16.3125V58.7937C16.3125 61.6045 18.5993 63.8913 21.4102 63.8913H65.5898C68.4007 63.8913 70.6875 61.6045 70.6875 58.7937V55.3954H78.5039C81.3148 55.3954 83.6016 57.6822 83.6016 60.4929V77.4853Z" fill="#A4804D"/>
<path d="M35.0885 38.4883C37.3351 36.2416 40.3221 35.0044 43.4992 35.0044C46.6762 35.0044 49.6632 36.2416 51.9098 38.4883C52.2416 38.82 52.6765 38.986 53.1113 38.986C53.5461 38.986 53.9811 38.82 54.3128 38.4883C54.9764 37.8248 54.9764 36.7488 54.3128 36.0851C51.4243 33.1966 47.5839 31.606 43.499 31.606C39.4141 31.606 35.5737 33.1966 32.6852 36.0851C32.0216 36.7486 32.0216 37.8246 32.6852 38.4883C33.349 39.1518 34.425 39.1518 35.0885 38.4883Z" fill="#A4804D"/>
<path d="M48.3055 43.7922C48.7403 43.7922 49.1754 43.6262 49.507 43.2945C50.1706 42.6308 50.1706 41.5551 49.507 40.8913C47.9023 39.2868 45.7688 38.4028 43.4995 38.4028C41.2301 38.4028 39.0966 39.2866 37.4919 40.8913C36.8283 41.5549 36.8281 42.6307 37.4919 43.2945C38.1554 43.9579 39.2315 43.9581 39.8949 43.2945C40.8578 42.3318 42.138 41.8014 43.4995 41.8014C44.8609 41.8014 46.1411 42.3318 47.104 43.2945C47.4359 43.6264 47.8707 43.7922 48.3055 43.7922Z" fill="#A4804D"/>
<path d="M41.7993 46.8989C41.7993 47.8372 42.5601 48.5981 43.4985 48.5981H43.4999C44.4384 48.5981 45.1986 47.8372 45.1986 46.8989C45.1986 45.9606 44.4372 45.1997 43.4987 45.1997C42.5602 45.1997 41.7993 45.9606 41.7993 46.8989Z" fill="#A4804D"/>
</g>
<defs>
<clipPath id="clip0_90_1028">
<rect width="87" height="87" fill="white"/>
</clipPath>
</defs>
</svg>
